<svg width="76" height="51" viewBox="0 0 76 51" fill="none" xmlns="http://www.w3.org/2000/svg">
<g clip-path="url(#clip0_1051_3090)">
<path d="M48.713 4.077C48.4317 3.73944 48.0796 3.46795 47.6815 3.28182C47.2835 3.09568 46.8494 2.99946 46.41 3H30.242L30.2 2.649C30.114 1.91942 29.7634 1.24673 29.2145 0.758478C28.6656 0.270223 27.9566 0.000341793 27.222 0L27 0C26.7348 0 26.4804 0.105357 26.2929 0.292893C26.1054 0.48043 26 0.734784 26 1C26 1.26522 26.1054 1.51957 26.2929 1.70711C26.4804 1.89464 26.7348 2 27 2H27.222C27.4669 2.00003 27.7033 2.08996 27.8864 2.25272C28.0694 2.41547 28.1863 2.63975 28.215 2.883L29.591 14.583C29.7339 15.7998 30.3185 16.9218 31.2339 17.736C32.1493 18.5502 33.3319 19 34.557 19H45C45.2652 19 45.5196 18.8946 45.7071 18.7071C45.8946 18.5196 46 18.2652 46 18C46 17.7348 45.8946 17.4804 45.7071 17.2929C45.5196 17.1054 45.2652 17 45 17H34.557C33.9381 16.9983 33.3348 16.8051 32.8299 16.4471C32.3251 16.089 31.9433 15.5835 31.737 15H43.657C44.8293 15.0001 45.9643 14.5882 46.8638 13.8364C47.7633 13.0846 48.37 12.0407 48.578 10.887L49.363 6.533C49.4414 6.10101 49.4237 5.65707 49.3114 5.23264C49.1991 4.80821 48.9948 4.41368 48.713 4.077ZM47.4 6.178L46.614 10.532C46.4891 11.225 46.1245 11.852 45.5839 12.3032C45.0433 12.7544 44.3612 13.0011 43.657 13H31.419L30.478 5H46.41C46.5569 4.99912 46.7022 5.03062 46.8355 5.09226C46.9689 5.15389 47.087 5.24415 47.1815 5.35661C47.276 5.46907 47.3446 5.60097 47.3824 5.74294C47.4201 5.8849 47.4262 6.03344 47.4 6.178Z" fill="#A3ADE2"/>
<path d="M33 24C34.1046 24 35 23.1046 35 22C35 20.8954 34.1046 20 33 20C31.8954 20 31 20.8954 31 22C31 23.1046 31.8954 24 33 24Z" fill="#A3ADE2"/>
<path d="M43 24C44.1046 24 45 23.1046 45 22C45 20.8954 44.1046 20 43 20C41.8954 20 41 20.8954 41 22C41 23.1046 41.8954 24 43 24Z" fill="#A3ADE2"/>
</g>
<path d="M18.44 41.784C18.136 41.448 17.776 41.184 17.36 40.992C16.944 40.8 16.524 40.704 16.1 40.704C15.684 40.704 15.292 40.784 14.924 40.944C14.564 41.096 14.244 41.312 13.964 41.592C13.692 41.872 13.48 42.2 13.328 42.576C13.176 42.944 13.1 43.344 13.1 43.776C13.1 44.2 13.176 44.6 13.328 44.976C13.48 45.344 13.692 45.668 13.964 45.948C14.244 46.228 14.564 46.448 14.924 46.608C15.292 46.768 15.684 46.848 16.1 46.848C16.524 46.848 16.94 46.76 17.348 46.584C17.756 46.4 18.12 46.152 18.44 45.84L19.28 46.716C19 46.996 18.68 47.24 18.32 47.448C17.968 47.656 17.596 47.816 17.204 47.928C16.82 48.04 16.428 48.096 16.028 48.096C15.412 48.096 14.84 47.988 14.312 47.772C13.784 47.548 13.32 47.24 12.92 46.848C12.528 46.456 12.22 46 11.996 45.48C11.772 44.952 11.66 44.388 11.66 43.788C11.66 43.188 11.772 42.632 11.996 42.12C12.22 41.6 12.532 41.144 12.932 40.752C13.34 40.36 13.808 40.056 14.336 39.84C14.872 39.624 15.452 39.516 16.076 39.516C16.476 39.516 16.868 39.568 17.252 39.672C17.636 39.776 18 39.924 18.344 40.116C18.688 40.308 18.996 40.54 19.268 40.812L18.44 41.784ZM23.1994 41.58C23.8554 41.58 24.4314 41.716 24.9274 41.988C25.4314 42.26 25.8234 42.64 26.1034 43.128C26.3834 43.608 26.5234 44.168 26.5234 44.808C26.5234 45.448 26.3834 46.012 26.1034 46.5C25.8234 46.988 25.4314 47.368 24.9274 47.64C24.4314 47.912 23.8554 48.048 23.1994 48.048C22.5434 48.048 21.9634 47.912 21.4594 47.64C20.9554 47.368 20.5634 46.988 20.2834 46.5C20.0034 46.012 19.8634 45.448 19.8634 44.808C19.8634 44.168 20.0034 43.608 20.2834 43.128C20.5634 42.64 20.9554 42.26 21.4594 41.988C21.9634 41.716 22.5434 41.58 23.1994 41.58ZM23.1994 42.696C22.8154 42.696 22.4754 42.788 22.1794 42.972C21.8834 43.148 21.6514 43.396 21.4834 43.716C21.3234 44.036 21.2434 44.404 21.2434 44.82C21.2434 45.244 21.3234 45.616 21.4834 45.936C21.6514 46.256 21.8834 46.508 22.1794 46.692C22.4754 46.868 22.8154 46.956 23.1994 46.956C23.5834 46.956 23.9194 46.868 24.2074 46.692C24.5034 46.508 24.7314 46.256 24.8914 45.936C25.0594 45.616 25.1434 45.244 25.1434 44.82C25.1434 44.404 25.0594 44.036 24.8914 43.716C24.7314 43.396 24.5034 43.148 24.2074 42.972C23.9194 42.788 23.5834 42.696 23.1994 42.696ZM32.6074 44.4C32.6074 43.896 32.4754 43.504 32.2114 43.224C31.9474 42.936 31.5794 42.792 31.1074 42.792C30.5554 42.808 30.1194 43.012 29.7994 43.404C29.4874 43.796 29.3314 44.28 29.3314 44.856H28.9474C28.9474 44.072 29.0554 43.44 29.2714 42.96C29.4954 42.48 29.8074 42.132 30.2074 41.916C30.6154 41.692 31.0954 41.58 31.6474 41.58C32.1354 41.58 32.5514 41.68 32.8954 41.88C33.2474 42.08 33.5154 42.364 33.6994 42.732C33.8914 43.092 33.9874 43.528 33.9874 44.04V48H32.6074V44.4ZM37.2514 44.4C37.2514 43.896 37.1154 43.504 36.8434 43.224C36.5794 42.936 36.2114 42.792 35.7394 42.792C35.1954 42.808 34.7674 43.012 34.4554 43.404C34.1434 43.796 33.9874 44.28 33.9874 44.856H33.5914C33.5914 44.072 33.6994 43.44 33.9154 42.96C34.1394 42.48 34.4514 42.132 34.8514 41.916C35.2594 41.692 35.7394 41.58 36.2914 41.58C36.7794 41.58 37.1954 41.68 37.5394 41.88C37.8914 42.08 38.1594 42.364 38.3434 42.732C38.5354 43.092 38.6314 43.528 38.6314 44.04V48H37.2514V44.4ZM27.9634 41.628H29.3314V48H27.9634V41.628ZM44.151 41.58C44.759 41.58 45.291 41.716 45.747 41.988C46.203 42.26 46.559 42.64 46.815 43.128C47.071 43.616 47.199 44.184 47.199 44.832C47.199 45.464 47.071 46.024 46.815 46.512C46.567 46.992 46.215 47.368 45.759 47.64C45.311 47.912 44.783 48.048 44.175 48.048C43.591 48.048 43.091 47.92 42.675 47.664C42.267 47.408 41.955 47.04 41.739 46.56C41.523 46.072 41.415 45.496 41.415 44.832C41.415 44.144 41.523 43.56 41.739 43.08C41.955 42.592 42.267 42.22 42.675 41.964C43.091 41.708 43.583 41.58 44.151 41.58ZM43.863 42.672C43.487 42.672 43.151 42.764 42.855 42.948C42.559 43.132 42.327 43.384 42.159 43.704C41.999 44.016 41.919 44.38 41.919 44.796C41.919 45.212 41.999 45.584 42.159 45.912C42.327 46.232 42.559 46.484 42.855 46.668C43.151 46.844 43.487 46.932 43.863 46.932C44.247 46.932 44.583 46.84 44.871 46.656C45.167 46.472 45.395 46.22 45.555 45.9C45.723 45.58 45.807 45.212 45.807 44.796C45.807 44.388 45.723 44.024 45.555 43.704C45.395 43.384 45.167 43.132 44.871 42.948C44.583 42.764 44.247 42.672 43.863 42.672ZM40.539 41.628H41.919V50.328H40.539V41.628ZM52.2232 42.828C51.7672 42.804 51.3712 42.884 51.0352 43.068C50.7072 43.244 50.4512 43.492 50.2672 43.812C50.0912 44.132 50.0032 44.5 50.0032 44.916L49.6192 44.868C49.6192 44.156 49.7232 43.556 49.9312 43.068C50.1392 42.58 50.4392 42.212 50.8312 41.964C51.2232 41.708 51.6872 41.58 52.2232 41.58V42.828ZM48.6352 41.628H50.0152V48H48.6352V41.628ZM55.1881 45.156C54.7401 45.156 54.4081 45.224 54.1921 45.36C53.9761 45.496 53.8681 45.72 53.8681 46.032C53.8681 46.328 53.9761 46.564 54.1921 46.74C54.4161 46.916 54.7201 47.004 55.1041 47.004C55.4481 47.004 55.7561 46.944 56.0281 46.824C56.3001 46.704 56.5161 46.544 56.6761 46.344C56.8361 46.136 56.9201 45.904 56.9281 45.648L57.1921 46.812C56.9921 47.228 56.6881 47.54 56.2801 47.748C55.8721 47.956 55.3841 48.06 54.8161 48.06C54.3601 48.06 53.9641 47.972 53.6281 47.796C53.2921 47.62 53.0321 47.384 52.8481 47.088C52.6641 46.784 52.5721 46.448 52.5721 46.08C52.5721 45.504 52.7801 45.044 53.1961 44.7C53.6201 44.356 54.2161 44.18 54.9841 44.172H57.0961V45.156H55.1881ZM56.9161 43.956C56.9161 43.54 56.7881 43.216 56.5321 42.984C56.2761 42.752 55.8961 42.636 55.3921 42.636C55.0881 42.636 54.7761 42.692 54.4561 42.804C54.1441 42.916 53.8281 43.08 53.5081 43.296L52.9441 42.408C53.2401 42.224 53.5201 42.072 53.7841 41.952C54.0481 41.832 54.3281 41.74 54.6241 41.676C54.9281 41.612 55.2841 41.58 55.6921 41.58C56.5161 41.58 57.1481 41.78 57.5881 42.18C58.0361 42.572 58.2641 43.116 58.2721 43.812L58.2841 48H56.9281L56.9161 43.956ZM63.7673 43.176C63.4873 43.008 63.1793 42.876 62.8433 42.78C62.5153 42.676 62.2113 42.624 61.9313 42.624C61.6593 42.624 61.4353 42.676 61.2593 42.78C61.0833 42.884 60.9953 43.056 60.9953 43.296C60.9953 43.496 61.0753 43.656 61.2353 43.776C61.4033 43.888 61.6153 43.984 61.8713 44.064C62.1273 44.144 62.3993 44.228 62.6873 44.316C62.9753 44.404 63.2473 44.52 63.5033 44.664C63.7673 44.8 63.9793 44.988 64.1393 45.228C64.2993 45.468 64.3793 45.784 64.3793 46.176C64.3793 46.608 64.2633 46.964 64.0313 47.244C63.8073 47.516 63.5073 47.72 63.1313 47.856C62.7633 47.984 62.3633 48.048 61.9313 48.048C61.4673 48.048 61.0033 47.972 60.5393 47.82C60.0753 47.668 59.6833 47.448 59.3633 47.16L59.8553 46.224C60.1353 46.472 60.4753 46.668 60.8753 46.812C61.2753 46.948 61.6473 47.016 61.9913 47.016C62.1913 47.016 62.3673 46.992 62.5193 46.944C62.6793 46.888 62.8033 46.808 62.8913 46.704C62.9873 46.6 63.0353 46.464 63.0353 46.296C63.0353 46.072 62.9553 45.896 62.7953 45.768C62.6353 45.64 62.4273 45.536 62.1713 45.456C61.9153 45.368 61.6433 45.284 61.3553 45.204C61.0673 45.116 60.7953 45.004 60.5393 44.868C60.2913 44.732 60.0873 44.548 59.9273 44.316C59.7673 44.084 59.6873 43.776 59.6873 43.392C59.6873 42.96 59.7993 42.612 60.0233 42.348C60.2473 42.076 60.5353 41.88 60.8873 41.76C61.2473 41.632 61.6313 41.568 62.0393 41.568C62.4393 41.568 62.8393 41.624 63.2393 41.736C63.6393 41.848 63.9833 42.004 64.2713 42.204L63.7673 43.176Z" fill="#A3ADE2"/>
<defs>
<clipPath id="clip0_1051_3090">
<rect width="24" height="24" fill="white" transform="translate(26)"/>
</clipPath>
</defs>
</svg>
