<svg width="18" height="18" viewBox="0 0 18 18" fill="none" xmlns="http://www.w3.org/2000/svg">
<g clip-path="url(#clip0_1485_6001)">
<path d="M5.62873 18C4.27105 17.9991 2.95949 17.5072 1.93607 16.6151C0.91266 15.7229 0.24646 14.4907 0.0604054 13.1459C-0.12565 11.801 0.180996 10.4342 0.92376 9.29769C1.66652 8.1612 2.79528 7.3317 4.10173 6.96227C5.05133 6.69033 6.05645 6.6779 7.01248 6.92626L12.9435 0.996764C13.2583 0.679727 13.633 0.428365 14.0458 0.257261C14.4585 0.0861575 14.9012 -0.00128235 15.348 1.42104e-05C16.0512 0.000610035 16.7254 0.280208 17.2226 0.777425C17.7198 1.27464 17.9994 1.94884 18 2.65201C18.0011 3.09886 17.9137 3.5415 17.7428 3.95435C17.5718 4.36719 17.3207 4.74206 17.004 5.05726L16.5 5.56126C16.218 5.84134 15.8369 5.99899 15.4395 6.00001H14.25V6.75001C14.25 7.14784 14.0919 7.52937 13.8106 7.81067C13.5293 8.09198 13.1478 8.25002 12.75 8.25002H12V9.43952C12.0005 9.63657 11.9619 9.83177 11.8865 10.0138C11.8111 10.1958 11.7002 10.3611 11.5605 10.5L11.073 10.9875C11.3227 11.9431 11.3105 12.9483 11.0377 13.8975C10.7308 14.979 10.108 15.9443 9.24909 16.6697C8.39021 17.3951 7.33435 17.8476 6.21673 17.9693C6.02139 17.9896 5.82513 17.9998 5.62873 18ZM5.62873 8.25002C4.86085 8.24927 4.10799 8.46288 3.45492 8.8668C2.80185 9.27073 2.27449 9.84892 1.93221 10.5363C1.58993 11.2237 1.4463 11.993 1.51751 12.7575C1.58872 13.5221 1.87194 14.2516 2.33527 14.864C2.79861 15.4763 3.42367 15.9472 4.1401 16.2236C4.85653 16.5 5.63588 16.5709 6.39042 16.4283C7.14497 16.2858 7.84475 15.9355 8.41099 15.4168C8.97723 14.8981 9.38745 14.2317 9.59548 13.4925C9.82948 12.6799 9.80325 11.8145 9.52048 11.0175C9.47433 10.8844 9.4666 10.741 9.49817 10.6037C9.52974 10.4665 9.59933 10.3408 9.69898 10.2413L10.5 9.43952V8.25002C10.5 7.85219 10.658 7.47066 10.9393 7.18935C11.2206 6.90805 11.6022 6.75001 12 6.75001H12.75V6.00001C12.75 5.60219 12.908 5.22066 13.1893 4.93935C13.4706 4.65805 13.8522 4.50001 14.25 4.50001H15.4395L15.9435 3.99601C16.1205 3.81988 16.2608 3.61041 16.3563 3.37972C16.4518 3.14903 16.5006 2.9017 16.5 2.65201C16.4998 2.34668 16.3785 2.05389 16.1626 1.83791C15.9468 1.62193 15.6541 1.50041 15.3487 1.50001C15.0989 1.4994 14.8514 1.54833 14.6206 1.64398C14.3897 1.73963 14.1802 1.8801 14.004 2.05726L7.75573 8.30476C7.65602 8.40443 7.53023 8.47396 7.3928 8.5054C7.25537 8.53684 7.11186 8.52891 6.97873 8.48252C6.54379 8.32938 6.0861 8.25077 5.62498 8.25002H5.62873ZM3.74998 13.5C3.74998 13.6484 3.79397 13.7934 3.87638 13.9167C3.95879 14.04 4.07593 14.1362 4.21297 14.1929C4.35002 14.2497 4.50082 14.2645 4.6463 14.2356C4.79179 14.2067 4.92542 14.1352 5.03031 14.0303C5.1352 13.9255 5.20663 13.7918 5.23557 13.6463C5.26451 13.5008 5.24966 13.35 5.19289 13.213C5.13613 13.076 5.04 12.9588 4.91666 12.8764C4.79332 12.794 4.64832 12.75 4.49998 12.75C4.30107 12.75 4.11031 12.829 3.96965 12.9697C3.829 13.1103 3.74998 13.3011 3.74998 13.5Z" fill="#000D54"/>
</g>
<defs>
<clipPath id="clip0_1485_6001">
<rect width="18" height="18" fill="white"/>
</clipPath>
</defs>
</svg>
