<svg width="78" height="78" viewBox="0 0 78 78" fill="none" xmlns="http://www.w3.org/2000/svg">
<path d="M39 39.4814C44.46 39.4814 48.9023 35.0391 48.9023 29.5791C48.9023 24.1191 44.46 19.6767 39 19.6767C33.54 19.6767 29.0977 24.1191 29.0977 29.5791C29.0977 35.0391 33.54 39.4814 39 39.4814ZM39 21.2002C43.6282 21.2002 47.3789 24.9509 47.3789 29.5791C47.3789 34.2073 43.6282 37.958 39 37.958C34.3718 37.958 30.6211 34.2073 30.6211 29.5791C30.6211 24.9509 34.3718 21.2002 39 21.2002ZM33.4136 29.5791C33.4136 29.1159 33.7883 28.7412 34.2514 28.7412H43.747C44.2102 28.7412 44.5849 29.1159 44.5849 29.5791C44.5849 30.0422 44.2102 30.417 43.747 30.417H34.2514C33.7883 30.417 33.4136 30.0422 33.4136 29.5791ZM33.4136 26.7866C33.4136 26.3235 33.7883 25.9487 34.2514 25.9487H43.747C44.2102 25.9487 44.5849 26.3235 44.5849 26.7866C44.5849 27.2497 44.2102 27.6245 43.747 27.6245H34.2514C33.7883 27.6245 33.4136 27.2497 33.4136 26.7866ZM39 0C17.4616 0 0 17.4616 0 39C0 60.5384 17.4616 78 39 78C60.5384 78 78 60.5384 78 39C78 17.4616 60.5384 0 39 0ZM61.9567 32.9535L63.6157 34.6079L61.9567 36.267V32.9535ZM35.1137 13.9455C37.2618 11.8036 40.7382 11.8036 42.8878 13.9455L45.8981 16.9467H32.1034L35.1137 13.9455ZM17.6094 23.9759C17.6094 20.9351 20.0743 18.4702 23.1151 18.4702H54.9275C57.9683 18.4702 60.4332 20.9351 60.4332 23.9759V37.7904L49.7235 48.5002L43.971 42.7477C42.6441 41.4207 40.8784 40.6895 39 40.6895C37.1216 40.6895 35.3575 41.4207 34.029 42.7477L28.2415 48.5352L17.6079 37.9016V23.9774L17.6094 23.9759ZM16.086 32.9123V36.3766L14.3828 34.6734C14.3721 34.6628 14.3599 34.6536 14.3493 34.643L16.086 32.9123ZM13.3057 60.1545V35.752L27.1659 49.6123L13.9806 62.7976C13.551 62.013 13.3057 61.1127 13.3057 60.156V60.1545ZM59.7766 65.6297L18.6164 65.6571C17.1646 65.6068 15.8575 64.9944 14.9023 64.0316L35.1076 43.8262C37.2572 41.6767 40.7443 41.6767 42.8939 43.8262L63.0993 64.0316C62.2309 64.9076 61.07 65.4926 59.7766 65.6312V65.6297ZM64.6958 60.1545C64.6958 61.1127 64.4505 62.013 64.0209 62.7961L50.8021 49.5772L64.6958 35.6835V60.1545ZM33.4136 32.373C33.4136 31.9099 33.7883 31.5352 34.2514 31.5352H39.2788C39.7419 31.5352 40.1167 31.9099 40.1167 32.373C40.1167 32.8362 39.7419 33.2109 39.2788 33.2109H34.2514C33.7883 33.2109 33.4136 32.8362 33.4136 32.373Z" fill="#A3ADE2"/>
</svg>
