<svg width="78" height="78" viewBox="0 0 78 78" fill="none" xmlns="http://www.w3.org/2000/svg">
<path d="M39 0C31.2865 0 23.7463 2.28731 17.3328 6.57269C10.9193 10.8581 5.92053 16.949 2.96872 24.0753C0.016898 31.2017 -0.755432 39.0433 0.749392 46.6085C2.25422 54.1738 5.96861 61.1229 11.4229 66.5772C16.8771 72.0314 23.8262 75.7458 31.3915 77.2506C38.9568 78.7555 46.7984 77.9831 53.9247 75.0313C61.051 72.0795 67.142 67.0808 71.4273 60.6672C75.7127 54.2537 78 46.7135 78 39C78 28.6566 73.8911 18.7368 66.5772 11.4228C59.2633 4.10892 49.3435 0 39 0ZM48.8834 35.3053L48.2369 40.7396C48.209 40.9918 48.0886 41.2247 47.8991 41.3934C47.7096 41.5621 47.4643 41.6546 47.2105 41.653H41.5658V57.7662C41.5672 57.9586 41.4924 58.1437 41.3578 58.2812C41.2232 58.4186 41.0398 58.4973 40.8474 58.5H35.1C35.0043 58.4987 34.9098 58.4785 34.8219 58.4406C34.734 58.4028 34.6545 58.348 34.5877 58.2793C34.521 58.2107 34.4685 58.1296 34.4331 58.0407C34.3978 57.9518 34.3802 57.8568 34.3816 57.7611L34.4124 41.653H30.1378C29.8656 41.653 29.6045 41.5449 29.4121 41.3524C29.2196 41.16 29.1115 40.8989 29.1115 40.6267V35.1975C29.1115 34.9253 29.2196 34.6643 29.4121 34.4718C29.6045 34.2793 29.8656 34.1712 30.1378 34.1712H34.3816V28.9062C34.3816 22.815 38.0096 19.5 43.3105 19.5H47.657C47.9292 19.5 48.1902 19.6081 48.3827 19.8006C48.5752 19.9931 48.6833 20.2541 48.6833 20.5263V25.0986C48.6833 25.3708 48.5752 25.6318 48.3827 25.8243C48.1902 26.0167 47.9292 26.1249 47.657 26.1249H44.9937C42.1098 26.1711 41.5658 27.5515 41.5658 29.6143V34.1558H47.8879C48.0311 34.1591 48.172 34.1922 48.3016 34.2532C48.4312 34.3142 48.5466 34.4017 48.6404 34.5099C48.7341 34.6182 48.8042 34.7449 48.8461 34.8819C48.8879 35.0189 48.9007 35.1631 48.8834 35.3053Z" fill="#A3ADE2"/>
</svg>
