<svg width="14" height="12" viewBox="0 0 14 12" fill="none" xmlns="http://www.w3.org/2000/svg">
<path d="M14 5.99861C13.9951 5.4725 13.7832 4.9695 13.41 4.59861L9.12 0.298605C8.93264 0.112355 8.67919 0.0078125 8.415 0.0078125C8.15082 0.0078125 7.89736 0.112355 7.71 0.298605C7.61627 0.391568 7.54188 0.502169 7.49111 0.624029C7.44034 0.745888 7.4142 0.876594 7.4142 1.00861C7.4142 1.14062 7.44034 1.27132 7.49111 1.39318C7.54188 1.51504 7.61627 1.62564 7.71 1.71861L11 4.99861H1C0.734784 4.99861 0.48043 5.10396 0.292893 5.2915C0.105357 5.47903 0 5.73339 0 5.99861C0 6.26382 0.105357 6.51818 0.292893 6.70571C0.48043 6.89325 0.734784 6.99861 1 6.99861H11L7.71 10.2886C7.5217 10.4756 7.41538 10.7297 7.41444 10.9951C7.41351 11.2604 7.51802 11.5153 7.705 11.7036C7.89198 11.8919 8.1461 11.9982 8.41147 11.9992C8.67683 12.0001 8.9317 11.8956 9.12 11.7086L13.41 7.40861C13.7856 7.03525 13.9978 6.52818 14 5.99861Z" fill="#000D54"/>
</svg>
