<svg width="304" height="293" viewBox="0 0 304 293" fill="none" xmlns="http://www.w3.org/2000/svg">
<g clip-path="url(#clip0_1485_5096)">
<path fill-rule="evenodd" clip-rule="evenodd" d="M73.4526 259.56L79.7161 279.331L142.929 260.783L136.667 241.012L73.4526 259.56Z" fill="#000D54"/>
<path fill-rule="evenodd" clip-rule="evenodd" d="M177.733 236.469L220.586 249.04L221.73 242.769C221.881 241.929 222.336 241.166 223.014 240.616L259.051 211.333C262.528 208.604 264.797 204.706 265.399 200.428C265.444 200.434 278.524 138.705 279.929 132.336C280.11 131.526 280.123 130.69 279.967 129.875C279.811 129.06 279.49 128.283 279.021 127.588C278.567 126.899 277.975 126.303 277.281 125.834C276.586 125.365 275.803 125.033 274.974 124.857C274.146 124.681 273.29 124.664 272.455 124.807C271.619 124.95 270.822 125.251 270.108 125.692C268.597 126.647 267.517 128.117 267.083 129.806L256.764 169.013C261.217 172.504 262.624 178.165 261.127 183.496C260.684 185.138 259.903 186.677 258.829 188.022C257.755 189.367 256.411 190.49 254.876 191.325L220.532 210.316C219.663 210.797 218.632 210.925 217.665 210.674C216.698 210.422 215.875 209.812 215.376 208.976C214.877 208.14 214.743 207.148 215.004 206.217C215.265 205.287 215.9 204.494 216.768 204.014L251.113 185.025C257.971 181.234 252.29 169.801 244.573 174.068L197.556 200.068C193.973 201.978 191.19 205.026 189.683 208.691L177.733 236.469Z" fill="#000D54"/>
<path fill-rule="evenodd" clip-rule="evenodd" d="M161.043 260.782L224.258 279.33L230.521 259.559L167.306 241.012L161.043 260.782Z" fill="#000D54"/>
<path fill-rule="evenodd" clip-rule="evenodd" d="M158.069 38.5859H145.903C145.234 38.5904 144.594 38.848 144.122 39.3029C143.649 39.7578 143.382 40.3735 143.377 41.0168L143.363 47.2556C143.362 48.0837 143.068 48.8868 142.53 49.5324C141.991 50.1779 141.239 50.6272 140.399 50.8059C134.427 52.0789 128.728 54.3314 123.55 57.4648C122.82 58.005 121.911 58.2712 120.992 58.2137C120.073 58.1562 119.207 57.7789 118.556 57.1522L113.972 52.7408C113.496 52.2893 112.854 52.0362 112.186 52.0362C111.517 52.0362 110.875 52.2893 110.399 52.7408L101.796 61.0202C101.327 61.4788 101.064 62.0964 101.064 62.7396C101.064 63.3829 101.327 64.0005 101.796 64.4591L106.368 68.8808C106.975 69.4661 107.357 70.2334 107.451 71.0558C107.544 71.8783 107.344 72.7069 106.882 73.4048C103.592 78.37 101.215 83.8433 99.8549 89.5848C99.7346 90.4627 99.2868 91.2687 98.5949 91.8525C97.903 92.4362 97.0142 92.758 96.0941 92.7579H89.6163C88.9478 92.7627 88.3082 93.0203 87.8355 93.4752C87.3628 93.93 87.095 94.5455 87.0898 95.1888V106.899C87.0948 107.542 87.3626 108.158 87.8353 108.612C88.308 109.067 88.9477 109.325 89.6163 109.33L96.0964 109.343C96.9569 109.343 97.7916 109.626 98.4624 110.145C99.1332 110.663 99.5999 111.387 99.7854 112.196C101.108 117.943 103.449 123.428 106.705 128.411C107.266 129.114 107.542 129.989 107.482 130.873C107.423 131.757 107.031 132.591 106.38 133.217L101.788 137.622C101.322 138.084 101.062 138.703 101.064 139.346C101.065 139.99 101.328 140.608 101.796 141.068L110.399 149.347C110.875 149.799 111.517 150.052 112.185 150.052C112.854 150.052 113.496 149.799 113.972 149.347L118.566 144.947C119.175 144.362 119.972 143.994 120.827 143.904C121.681 143.814 122.542 144.008 123.268 144.452C128.429 147.615 134.116 149.902 140.08 151.214C140.992 151.33 141.83 151.761 142.436 152.427C143.043 153.093 143.377 153.948 143.377 154.833V161.071C143.381 161.714 143.649 162.33 144.121 162.785C144.594 163.24 145.234 163.497 145.903 163.501H158.069C158.738 163.497 159.378 163.24 159.851 162.785C160.323 162.33 160.591 161.714 160.595 161.071L160.61 154.833C160.611 154.005 160.904 153.202 161.443 152.557C161.982 151.911 162.733 151.462 163.573 151.283C169.545 150.011 175.245 147.758 180.423 144.624C181.153 144.084 182.062 143.818 182.981 143.876C183.9 143.933 184.766 144.311 185.417 144.937L190 149.345C190.476 149.797 191.118 150.051 191.787 150.051C192.455 150.051 193.097 149.797 193.573 149.345L202.176 141.067C202.645 140.608 202.908 139.991 202.908 139.347C202.908 138.704 202.645 138.087 202.176 137.628L197.605 133.206C196.997 132.621 196.615 131.853 196.522 131.031C196.428 130.208 196.629 129.38 197.091 128.682C200.38 123.716 202.757 118.243 204.117 112.501C204.238 111.623 204.685 110.818 205.377 110.234C206.069 109.65 206.958 109.328 207.878 109.328H214.356C215.025 109.323 215.664 109.066 216.137 108.611C216.61 108.156 216.878 107.54 216.883 106.897V95.1871C216.878 94.5438 216.61 93.9284 216.137 93.4736C215.664 93.0188 215.024 92.7612 214.356 92.7562L207.876 92.7431C207.015 92.7427 206.181 92.4598 205.51 91.9411C204.839 91.4225 204.373 90.6991 204.187 89.8905C202.864 84.1435 200.523 78.6583 197.268 73.6751C196.707 72.9725 196.43 72.0974 196.49 71.2131C196.549 70.3287 196.942 69.4955 197.593 68.8688L202.176 64.4574C202.645 63.9987 202.908 63.3812 202.908 62.7379C202.908 62.0946 202.645 61.4771 202.176 61.0185L193.574 52.7414C193.097 52.2899 192.456 52.0368 191.787 52.0368C191.119 52.0368 190.477 52.2899 190.001 52.7414L185.406 57.1414C184.798 57.7263 184.001 58.0941 183.146 58.1841C182.291 58.2741 181.43 58.0808 180.705 57.6362C175.545 54.4704 169.858 52.1826 163.892 50.8728C162.98 50.7569 162.143 50.326 161.536 49.6603C160.93 48.9945 160.595 48.1394 160.595 47.2539V41.0168C160.59 40.3734 160.323 39.7577 159.85 39.3027C159.377 38.8478 158.738 38.5903 158.069 38.5859ZM151.986 64.1128C160.864 64.1127 169.467 67.0752 176.33 72.4956C183.193 77.9161 187.891 85.459 189.623 93.8393C191.356 102.22 190.015 110.919 185.83 118.454C181.645 125.99 174.874 131.896 166.672 135.165C158.469 138.435 149.343 138.867 140.847 136.387C132.351 133.906 125.011 128.668 120.079 121.563C115.146 114.459 112.926 105.928 113.796 97.4249C114.666 88.9216 118.573 80.9718 124.851 74.9299C128.41 71.4953 132.64 68.7715 137.297 66.9152C141.953 65.0588 146.945 64.1064 151.986 64.1128Z" fill="#000D54"/>
<path fill-rule="evenodd" clip-rule="evenodd" d="M172.67 122.985C171.97 122.344 171.189 121.79 170.345 121.336C168.653 120.431 166.749 119.959 164.814 119.965H139.155C137.219 119.959 135.315 120.431 133.623 121.336C132.78 121.79 131.999 122.344 131.299 122.985C136.963 127.93 144.337 130.67 151.984 130.67C159.632 130.67 167.005 127.93 172.67 122.985Z" fill="#000D54"/>
<path fill-rule="evenodd" clip-rule="evenodd" d="M126.361 117.469C127.456 116.51 128.661 115.674 129.953 114.979C132.765 113.464 135.933 112.667 139.156 112.666H164.815C168.038 112.667 171.206 113.464 174.018 114.979C175.311 115.674 176.516 116.509 177.61 117.469C180.697 113.006 182.469 107.821 182.735 102.466C183.002 97.1102 181.754 91.7856 179.123 87.0592C176.493 82.3328 172.58 78.3818 167.8 75.6273C163.021 72.8727 157.554 71.418 151.983 71.418C146.412 71.418 140.946 72.8727 136.166 75.6273C131.387 78.3818 127.473 82.3328 124.843 87.0592C122.213 91.7856 120.965 97.1102 121.232 102.466C121.498 107.821 123.27 113.006 126.357 117.469H126.361ZM151.987 80.3674C155.37 80.3664 158.649 81.4945 161.265 83.5595C163.881 85.6244 165.672 88.4983 166.332 91.6916C166.993 94.8849 166.483 98.2 164.889 101.072C163.295 103.944 160.715 106.195 157.59 107.441C154.464 108.688 150.987 108.853 147.749 107.908C144.511 106.964 141.714 104.968 139.834 102.261C137.954 99.5538 137.107 96.3032 137.439 93.0628C137.77 89.8224 139.258 86.7928 141.65 84.4903C143.006 83.1814 144.617 82.1433 146.391 81.4357C148.165 80.7282 150.067 80.3651 151.987 80.3674Z" fill="#000D54"/>
<path fill-rule="evenodd" clip-rule="evenodd" d="M156.96 89.6494C155.809 88.541 154.294 87.8509 152.673 87.6969C151.053 87.5428 149.427 87.9343 148.073 88.8046C146.719 89.6749 145.72 90.9702 145.247 92.4697C144.774 93.9692 144.856 95.5802 145.479 97.0281C146.102 98.476 147.227 99.6713 148.663 100.41C150.099 101.149 151.757 101.386 153.354 101.08C154.951 100.775 156.388 99.9457 157.422 98.7344C158.455 97.5231 159.019 96.0045 159.019 94.4374C159.02 93.5481 158.839 92.6673 158.486 91.8457C158.132 91.024 157.614 90.2776 156.96 89.6494Z" fill="#000D54"/>
<path fill-rule="evenodd" clip-rule="evenodd" d="M221.095 78.6924C220.188 78.2802 219.487 77.5379 219.148 76.6288C218.809 75.7197 218.859 74.7182 219.288 73.8446C219.716 72.9711 220.487 72.297 221.432 71.9708C222.376 71.6445 223.417 71.6928 224.325 72.1049L231.266 75.2546C230.361 72.6764 229.319 70.1446 228.145 67.6689C220.576 51.6376 207.755 38.4366 191.645 30.0886C175.535 21.7406 157.026 18.7059 138.953 21.4496C120.88 24.1933 104.24 32.5639 91.5828 45.2791C78.9255 57.9943 70.9488 74.3526 68.875 91.8478C68.8186 92.3234 68.6654 92.7836 68.4242 93.2023C68.183 93.6209 67.8584 93.9897 67.4691 94.2876C66.6828 94.8893 65.6803 95.1657 64.6823 95.0561C63.6842 94.9464 62.7723 94.4597 62.1471 93.703C61.522 92.9462 61.2347 91.9815 61.3487 91.0209C63.6337 71.9593 72.3426 54.1425 86.1439 40.2948C99.9451 26.447 118.079 17.3306 137.773 14.3394C157.467 11.3482 177.637 14.6468 195.198 23.7309C212.76 32.8151 226.747 47.1847 235.021 64.6426C236.129 66.9767 237.123 69.3375 238.002 71.7249L240.569 66.4786C241.005 65.6168 241.776 64.9549 242.715 64.6366C243.655 64.3183 244.687 64.3692 245.587 64.7783C246.488 65.1873 247.185 65.9215 247.527 66.8217C247.869 67.7219 247.828 68.7156 247.414 69.5872L240.608 83.4935C240.396 83.9278 240.098 84.3178 239.73 84.6411C239.362 84.9644 238.931 85.2148 238.462 85.3778C237.994 85.5408 237.496 85.6134 236.998 85.5912C236.5 85.5691 236.012 85.4528 235.561 85.2489L221.095 78.6924Z" fill="#000D54"/>
<path fill-rule="evenodd" clip-rule="evenodd" d="M235.098 110.24C235.212 109.279 235.717 108.402 236.504 107.8C236.893 107.502 237.339 107.281 237.818 107.149C238.296 107.017 238.796 106.977 239.29 107.031C239.785 107.086 240.263 107.233 240.698 107.465C241.133 107.697 241.516 108.01 241.826 108.384C242.135 108.759 242.365 109.189 242.502 109.649C242.639 110.109 242.681 110.591 242.624 111.066C240.339 130.128 231.63 147.945 217.829 161.792C204.028 175.64 185.894 184.757 166.2 187.748C146.506 190.739 126.337 187.441 108.775 178.357C91.2131 169.273 77.226 154.903 68.9524 137.445C67.8441 135.111 66.8503 132.749 65.9712 130.359L63.4038 135.606C62.9756 136.48 62.2043 137.154 61.2597 137.48C60.315 137.806 59.2744 137.758 58.3667 137.346C57.4591 136.934 56.7587 136.191 56.4197 135.282C56.0807 134.373 56.1308 133.372 56.5591 132.498L63.3593 118.602C63.57 118.164 63.869 117.77 64.2389 117.444C64.6088 117.119 65.0423 116.867 65.5141 116.703C65.986 116.54 66.4868 116.468 66.9877 116.493C67.4885 116.517 67.9793 116.637 68.4317 116.845L82.8776 123.393C83.7731 123.812 84.4608 124.555 84.7916 125.459C85.1223 126.363 85.0694 127.356 84.6444 128.223C84.2194 129.089 83.4565 129.76 82.5211 130.089C81.5857 130.418 80.5533 130.379 79.6476 129.98L72.7049 126.833C73.6099 129.412 74.6517 131.944 75.8262 134.42C83.3948 150.452 96.2166 163.654 112.327 172.003C128.437 180.352 146.948 183.386 165.022 180.642C183.095 177.898 199.736 169.526 212.393 156.81C225.05 144.093 233.026 127.733 235.098 110.237L235.098 110.24Z" fill="#000D54"/>
<path fill-rule="evenodd" clip-rule="evenodd" d="M50.1619 181.617C50.3506 182.33 50.6863 183 51.1492 183.585C51.6121 184.171 52.1926 184.662 52.8563 185.027L87.2012 204.018C88.0696 204.498 88.7041 205.291 88.9653 206.222C89.2265 207.152 89.0929 208.144 88.5938 208.98C88.3467 209.394 88.0174 209.757 87.6245 210.048C87.2317 210.339 86.7831 210.553 86.3043 210.678C85.3374 210.929 84.3064 210.801 83.438 210.32L49.0931 191.329C47.559 190.494 46.2151 189.371 45.1413 188.026C44.0675 186.681 43.2858 185.142 42.8427 183.5C41.3459 178.169 42.7519 172.508 47.2062 169.017L36.8868 129.81C36.4527 128.12 35.3711 126.65 33.8587 125.695C33.1582 125.255 32.374 124.954 31.5515 124.808C30.729 124.662 29.8845 124.675 29.0671 124.845C28.2261 125.019 27.429 125.351 26.7218 125.823C26.0145 126.294 25.411 126.895 24.9459 127.592C23.8047 129.29 23.7863 130.648 24.0802 132.563L38.5268 200.244C39.0237 202.592 39.4097 204.301 40.6643 206.456C41.7642 208.316 43.2058 209.969 44.9191 211.334L80.9597 240.619C81.6375 241.169 82.0918 241.932 82.2422 242.773H82.2487L83.3875 249.044L126.24 236.473L114.29 208.694C112.783 205.029 110 201.981 106.417 200.071L59.4012 174.071C54.0456 171.111 48.5386 175.836 50.1619 181.617Z" fill="#000D54"/>
</g>
<defs>
<clipPath id="clip0_1485_5096">
<rect width="304" height="292.571" fill="white"/>
</clipPath>
</defs>
</svg>
