<svg width="433" height="466" viewBox="0 0 433 466" fill="none" xmlns="http://www.w3.org/2000/svg">
<path fill-rule="evenodd" clip-rule="evenodd" d="M83.71 431.014L94.2956 465.614L201.129 433.155L190.546 398.555L83.71 431.014Z" fill="white"/>
<path fill-rule="evenodd" clip-rule="evenodd" d="M259.955 390.607L332.378 412.607L334.313 401.633C334.568 400.161 335.337 398.827 336.482 397.865L397.387 346.619C403.263 341.844 407.098 335.022 408.115 327.535C408.192 327.546 430.298 219.52 432.672 208.375C432.978 206.957 433 205.494 432.736 204.068C432.473 202.642 431.93 201.282 431.138 200.066C430.37 198.859 429.37 197.816 428.197 196.996C427.023 196.175 425.698 195.594 424.298 195.286C422.898 194.978 421.451 194.948 420.04 195.199C418.628 195.449 417.281 195.975 416.074 196.747C413.52 198.419 411.694 200.99 410.961 203.947L393.522 272.559C401.048 278.668 403.425 288.575 400.895 297.905C400.147 300.778 398.827 303.472 397.012 305.825C395.197 308.179 392.925 310.144 390.332 311.605L332.287 344.84C330.819 345.68 329.077 345.905 327.443 345.465C325.809 345.025 324.417 343.957 323.573 342.494C322.73 341.032 322.504 339.295 322.945 337.667C323.387 336.038 324.459 334.651 325.927 333.811L383.971 300.581C395.561 293.946 385.96 273.938 372.918 281.406L293.457 326.906C287.401 330.248 282.698 335.582 280.151 341.996L259.955 390.607Z" fill="white"/>
<path fill-rule="evenodd" clip-rule="evenodd" d="M231.746 433.153L338.584 465.612L349.168 431.012L242.331 398.555L231.746 433.153Z" fill="white"/>
<path fill-rule="evenodd" clip-rule="evenodd" d="M226.718 44.3087H206.156C205.026 44.3166 203.945 44.7673 203.146 45.5634C202.348 46.3595 201.896 47.437 201.888 48.5627L201.863 59.4807C201.862 60.9298 201.366 62.3353 200.455 63.465C199.545 64.5947 198.274 65.3809 196.855 65.6937C186.762 67.9214 177.13 71.8632 168.379 77.3467C167.145 78.2921 165.609 78.7579 164.056 78.6573C162.503 78.5566 161.039 77.8964 159.939 76.7997L152.192 69.0797C151.387 68.2895 150.302 67.8466 149.172 67.8466C148.042 67.8466 146.957 68.2895 146.152 69.0797L131.613 83.5687C130.821 84.3713 130.377 85.452 130.377 86.5777C130.377 87.7035 130.821 88.7841 131.613 89.5867L139.34 97.3247C140.366 98.3491 141.012 99.6917 141.17 101.131C141.328 102.57 140.989 104.02 140.209 105.242C134.648 113.931 130.631 123.509 128.332 133.557C128.129 135.093 127.372 136.504 126.203 137.525C125.034 138.547 123.532 139.11 121.976 139.11H111.029C109.899 139.118 108.818 139.569 108.019 140.365C107.22 141.161 106.767 142.238 106.759 143.364V163.856C106.767 164.982 107.22 166.059 108.019 166.855C108.818 167.651 109.899 168.102 111.029 168.111L121.98 168.134C123.435 168.134 124.845 168.629 125.979 169.537C127.113 170.444 127.902 171.711 128.215 173.126C130.451 183.183 134.407 192.782 139.91 201.503C140.858 202.732 141.325 204.264 141.223 205.811C141.122 207.359 140.46 208.817 139.36 209.914L131.6 217.622C130.812 218.43 130.373 219.513 130.376 220.639C130.378 221.766 130.822 222.847 131.613 223.652L146.152 238.141C146.957 238.931 148.041 239.375 149.172 239.375C150.302 239.375 151.386 238.931 152.191 238.141L159.956 230.441C160.984 229.417 162.331 228.774 163.776 228.616C165.22 228.459 166.676 228.797 167.901 229.575C176.624 235.109 186.235 239.112 196.316 241.409C197.857 241.611 199.272 242.366 200.297 243.531C201.322 244.696 201.888 246.192 201.888 247.742V258.657C201.895 259.783 202.347 260.861 203.145 261.657C203.944 262.453 205.026 262.904 206.156 262.911H226.718C227.848 262.904 228.93 262.454 229.729 261.657C230.528 260.861 230.98 259.783 230.987 258.657L231.013 247.742C231.013 246.293 231.51 244.887 232.42 243.758C233.33 242.628 234.6 241.842 236.02 241.529C246.113 239.302 255.746 235.36 264.497 229.875C265.731 228.93 267.268 228.465 268.82 228.566C270.373 228.667 271.836 229.327 272.937 230.424L280.684 238.138C281.488 238.928 282.573 239.372 283.703 239.372C284.833 239.372 285.917 238.928 286.722 238.138L301.262 223.65C302.054 222.847 302.498 221.767 302.498 220.641C302.498 219.516 302.054 218.435 301.262 217.633L293.535 209.894C292.508 208.869 291.863 207.527 291.705 206.087C291.547 204.648 291.887 203.198 292.667 201.977C298.226 193.286 302.243 183.708 304.542 173.661C304.745 172.124 305.502 170.714 306.671 169.692C307.84 168.671 309.342 168.108 310.897 168.108H321.846C322.976 168.099 324.057 167.648 324.856 166.852C325.655 166.056 326.108 164.979 326.117 163.853V143.361C326.108 142.235 325.655 141.158 324.856 140.362C324.057 139.566 322.976 139.115 321.846 139.107L310.894 139.084C309.44 139.083 308.03 138.588 306.896 137.68C305.762 136.773 304.973 135.507 304.66 134.092C302.424 124.034 298.468 114.435 292.966 105.715C292.017 104.485 291.55 102.954 291.651 101.406C291.752 99.8585 292.415 98.4004 293.515 97.3037L301.262 89.5837C302.054 88.7811 302.498 87.7005 302.498 86.5747C302.498 85.449 302.054 84.3683 301.262 83.5657L286.723 69.0807C285.918 68.2906 284.833 67.8478 283.704 67.8478C282.574 67.8478 281.489 68.2906 280.685 69.0807L272.919 76.7807C271.891 77.8043 270.544 78.448 269.099 78.6055C267.655 78.763 266.2 78.4247 264.974 77.6467C256.254 72.1065 246.642 68.1028 236.559 65.8107C235.017 65.608 233.602 64.8539 232.577 63.6888C231.552 62.5238 230.987 61.0272 230.987 59.4777V48.5627C230.979 47.4368 230.527 46.3592 229.728 45.5631C228.929 44.7669 227.848 44.3163 226.718 44.3087ZM216.436 88.9807C231.441 88.9805 245.982 94.1649 257.581 103.651C269.179 113.136 277.119 126.337 280.046 141.002C282.974 155.667 280.708 170.891 273.635 184.078C266.562 197.265 255.119 207.6 241.257 213.323C227.394 219.045 211.97 219.8 197.611 215.46C183.253 211.119 170.848 201.952 162.512 189.519C154.176 177.086 150.424 162.158 151.894 147.277C153.365 132.396 159.968 118.484 170.578 107.911C176.593 101.9 183.741 97.1335 191.611 93.8848C199.481 90.6362 207.918 88.9695 216.436 88.9807Z" fill="white"/>
<path fill-rule="evenodd" clip-rule="evenodd" d="M251.397 192.013C250.215 190.89 248.895 189.92 247.468 189.127C244.61 187.543 241.391 186.717 238.12 186.727H194.755C191.484 186.717 188.265 187.543 185.407 189.127C183.981 189.921 182.661 190.89 181.478 192.013C191.051 200.666 203.513 205.46 216.438 205.46C229.362 205.46 241.824 200.666 251.397 192.013Z" fill="white"/>
<path fill-rule="evenodd" clip-rule="evenodd" d="M173.127 182.354C174.976 180.675 177.013 179.213 179.197 177.997C183.949 175.345 189.304 173.951 194.751 173.948H238.116C243.563 173.951 248.918 175.345 253.67 177.997C255.854 179.212 257.891 180.674 259.74 182.354C264.958 174.544 267.952 165.469 268.402 156.098C268.853 146.726 266.743 137.408 262.298 129.136C257.853 120.865 251.239 113.951 243.162 109.131C235.084 104.31 225.845 101.764 216.43 101.764C207.015 101.764 197.776 104.31 189.698 109.131C181.621 113.951 175.007 120.865 170.562 129.136C166.117 137.408 164.007 146.726 164.458 156.098C164.908 165.469 167.902 174.544 173.12 182.354H173.127ZM216.436 117.426C222.154 117.424 227.695 119.398 232.116 123.012C236.537 126.625 239.564 131.655 240.681 137.243C241.798 142.831 240.935 148.633 238.241 153.659C235.547 158.684 231.187 162.624 225.905 164.805C220.623 166.987 214.745 167.276 209.273 165.623C203.801 163.969 199.074 160.477 195.897 155.739C192.719 151.002 191.289 145.313 191.849 139.643C192.408 133.972 194.924 128.67 198.967 124.641C201.258 122.35 203.98 120.534 206.979 119.295C209.977 118.057 213.191 117.422 216.436 117.426Z" fill="white"/>
<path fill-rule="evenodd" clip-rule="evenodd" d="M224.844 133.671C222.899 131.731 220.339 130.523 217.6 130.254C214.862 129.984 212.114 130.669 209.826 132.192C207.537 133.715 205.849 135.982 205.05 138.606C204.251 141.23 204.389 144.05 205.442 146.583C206.494 149.117 208.396 151.209 210.823 152.502C213.25 153.795 216.051 154.21 218.751 153.675C221.45 153.14 223.879 151.689 225.625 149.569C227.371 147.45 228.325 144.792 228.325 142.05C228.327 140.493 228.021 138.952 227.424 137.514C226.826 136.076 225.95 134.77 224.844 133.671Z" fill="white"/>
<path fill-rule="evenodd" clip-rule="evenodd" d="M333.237 114.497C331.703 113.776 330.519 112.477 329.946 110.886C329.373 109.295 329.458 107.542 330.181 106.013C330.905 104.485 332.209 103.305 333.805 102.734C335.402 102.163 337.16 102.248 338.694 102.969L350.425 108.481C348.895 103.969 347.135 99.5381 345.151 95.2058C332.359 67.151 310.69 44.0493 283.464 29.4402C256.237 14.8312 224.956 9.52051 194.411 14.3219C163.867 19.1234 135.744 33.7721 114.353 56.0236C92.961 78.2751 79.48 106.902 75.9752 137.519C75.8799 138.351 75.621 139.157 75.2133 139.889C74.8056 140.622 74.257 141.267 73.599 141.788C72.2702 142.841 70.576 143.325 68.8892 143.133C67.2024 142.941 65.6612 142.09 64.6046 140.765C63.548 139.441 63.0626 137.753 63.2552 136.072C67.117 102.714 81.8356 71.5345 105.161 47.301C128.485 23.0675 159.133 7.1137 192.417 1.87908C225.7 -3.35555 259.789 2.41709 289.469 18.3143C319.149 34.2115 342.788 59.3584 356.771 89.9098C358.644 93.9944 360.324 98.1258 361.809 102.304L366.148 93.1228C366.885 91.6145 368.188 90.4563 369.776 89.8993C371.363 89.3422 373.107 89.4313 374.63 90.1471C376.152 90.8629 377.329 92.1478 377.907 93.7232C378.485 95.2986 378.417 97.0374 377.716 98.5628L366.214 122.899C365.856 123.659 365.352 124.341 364.73 124.907C364.108 125.473 363.38 125.911 362.588 126.196C361.796 126.482 360.955 126.609 360.113 126.57C359.272 126.531 358.447 126.328 357.684 125.971L333.237 114.497Z" fill="white"/>
<path fill-rule="evenodd" clip-rule="evenodd" d="M356.901 169.697C357.093 168.016 357.948 166.48 359.277 165.427C359.935 164.905 360.689 164.518 361.497 164.288C362.305 164.057 363.151 163.987 363.986 164.082C364.822 164.177 365.63 164.435 366.365 164.841C367.1 165.247 367.748 165.794 368.271 166.449C368.794 167.105 369.183 167.857 369.414 168.662C369.646 169.468 369.716 170.31 369.621 171.143C365.759 204.501 351.041 235.68 327.716 259.914C304.391 284.147 273.744 300.101 240.46 305.336C207.176 310.571 173.088 304.798 143.408 288.901C113.727 273.004 90.0882 247.857 76.1053 217.306C74.2321 213.22 72.5526 209.087 71.0668 204.906L66.7278 214.088C66.0041 215.616 64.7006 216.796 63.1041 217.367C61.5076 217.938 59.7489 217.854 58.2149 217.132C56.6808 216.411 55.4972 215.112 54.9242 213.521C54.3513 211.93 54.436 210.177 55.1598 208.649L66.6526 184.33C67.0087 183.563 67.514 182.875 68.1392 182.305C68.7643 181.735 69.4969 181.294 70.2943 181.008C71.0918 180.722 71.9383 180.596 72.7847 180.639C73.6312 180.682 74.4607 180.891 75.2252 181.256L99.6397 192.715C101.153 193.449 102.315 194.747 102.874 196.33C103.433 197.912 103.344 199.65 102.626 201.167C101.907 202.683 100.618 203.857 99.0372 204.433C97.4564 205.009 95.7115 204.94 94.1808 204.243L82.4472 198.735C83.9766 203.247 85.7374 207.679 87.7225 212.012C100.514 240.069 122.183 263.172 149.411 277.782C176.638 292.392 207.922 297.703 238.468 292.901C269.014 288.098 297.137 273.448 318.529 251.194C339.92 228.94 353.4 200.31 356.902 169.692L356.901 169.697Z" fill="white"/>
<path fill-rule="evenodd" clip-rule="evenodd" d="M44.3496 294.614C44.6685 295.862 45.236 297.033 46.0183 298.059C46.8005 299.084 47.7817 299.942 48.9034 300.582L106.948 333.816C108.416 334.656 109.488 336.043 109.93 337.672C110.371 339.3 110.145 341.037 109.302 342.499C108.884 343.223 108.328 343.859 107.664 344.368C107 344.878 106.242 345.253 105.433 345.47C103.798 345.91 102.056 345.685 100.588 344.845L42.5434 311.61C39.9506 310.149 37.6793 308.183 35.8645 305.83C34.0497 303.476 32.7286 300.783 31.9798 297.91C29.4501 288.58 31.8263 278.673 39.3543 272.564L21.914 203.951C21.1804 200.993 19.3524 198.422 16.7963 196.751C15.6124 195.981 14.287 195.453 12.8969 195.198C11.5069 194.942 10.0797 194.964 8.69825 195.263C7.27681 195.567 5.92976 196.149 4.73448 196.974C3.53919 197.799 2.51922 198.851 1.73315 200.07C-0.195524 203.042 -0.226632 205.419 0.270087 208.77L24.6856 327.211C25.5255 331.32 26.1777 334.311 28.2981 338.082C30.157 341.338 32.5934 344.23 35.489 346.619L96.3997 397.868C97.5453 398.83 98.313 400.165 98.5672 401.637H98.5783L100.503 412.612L172.926 390.612L152.73 341.999C150.183 335.584 145.48 330.25 139.424 326.909L59.9647 281.409C50.9133 276.228 41.6061 284.498 44.3496 294.614Z" fill="white"/>
</svg>
