<svg width="78" height="78" viewBox="0 0 78 78" fill="none" xmlns="http://www.w3.org/2000/svg">
<path d="M38.9999 45.162C42.4037 45.162 45.163 42.4027 45.163 38.999C45.163 35.5952 42.4037 32.8359 38.9999 32.8359C35.5962 32.8359 32.8369 35.5952 32.8369 38.999C32.8369 42.4027 35.5962 45.162 38.9999 45.162Z" fill="#A3ADE2"/>
<path d="M46.882 23.4258H31.1178C29.0763 23.4258 27.1185 24.2368 25.6749 25.6803C24.2314 27.1238 23.4204 29.0817 23.4204 31.1231V46.8822C23.4204 48.9237 24.2314 50.8815 25.6749 52.3251C27.1185 53.7686 29.0763 54.5796 31.1178 54.5796H46.882C48.9235 54.5796 50.8813 53.7686 52.3248 52.3251C53.7684 50.8815 54.5794 48.9237 54.5794 46.8822V31.118C54.578 29.0774 53.7664 27.1209 52.323 25.6785C50.8796 24.236 48.9226 23.4258 46.882 23.4258ZM38.9999 49.0888C37.0043 49.0898 35.0533 48.499 33.3935 47.391C31.7338 46.2831 30.4399 44.7078 29.6755 42.8644C28.9111 41.0211 28.7106 38.9924 29.0993 37.0351C29.488 35.0777 30.4484 33.2796 31.8592 31.8682C33.2699 30.4567 35.0675 29.4954 37.0247 29.1057C38.9818 28.716 41.0106 28.9155 42.8543 29.6789C44.6981 30.4423 46.274 31.7354 47.3828 33.3946C48.4916 35.0538 49.0834 37.0045 49.0834 39.0001C49.0807 41.6741 48.0176 44.2378 46.1273 46.1291C44.237 48.0203 41.6738 49.0847 38.9999 49.0888ZM49.145 31.4054C48.6513 31.4064 48.1684 31.2609 47.7575 30.9872C47.3466 30.7136 47.0262 30.3241 46.8368 29.8682C46.6474 29.4123 46.5975 28.9104 46.6936 28.4262C46.7897 27.9419 47.0273 27.497 47.3764 27.148C47.7255 26.7989 48.1703 26.5612 48.6546 26.4652C49.1389 26.3691 49.6407 26.4189 50.0966 26.6083C50.5526 26.7977 50.942 27.1182 51.2157 27.5291C51.4893 27.94 51.6348 28.4229 51.6338 28.9166C51.6325 29.5762 51.3698 30.2085 50.9034 30.6749C50.4369 31.1414 49.8047 31.404 49.145 31.4054Z" fill="#A3ADE2"/>
<path d="M39 0C31.2865 0 23.7463 2.28731 17.3328 6.57268C10.9193 10.8581 5.92053 16.949 2.96872 24.0753C0.016898 31.2017 -0.755432 39.0433 0.749391 46.6085C2.25421 54.1738 5.9686 61.1229 11.4229 66.5771C16.8771 72.0314 23.8262 75.7458 31.3915 77.2506C38.9567 78.7554 46.7983 77.9831 53.9247 75.0313C61.051 72.0795 67.1419 67.0807 71.4273 60.6672C75.7127 54.2537 78 46.7135 78 39C78 28.6566 73.8911 18.7367 66.5772 11.4228C59.2632 4.10892 49.3434 0 39 0ZM58.5 46.8821C58.4973 49.9625 57.2724 52.916 55.0942 55.0942C52.916 57.2724 49.9625 58.4973 46.8821 58.5H31.1179C28.0379 58.4959 25.0852 57.2706 22.9073 55.0927C20.7294 52.9148 19.5041 49.9621 19.5 46.8821V31.1179C19.5041 28.0379 20.7294 25.0852 22.9073 22.9073C25.0852 20.7294 28.0379 19.5041 31.1179 19.5H46.8821C49.9621 19.5041 52.9148 20.7294 55.0927 22.9073C57.2706 25.0852 58.4959 28.0379 58.5 31.1179V46.8821Z" fill="#A3ADE2"/>
</svg>
