<svg width="76" height="51" viewBox="0 0 76 51" fill="none" xmlns="http://www.w3.org/2000/svg">
<g clip-path="url(#clip0_1051_3096)">
<path d="M38 12C39.1867 12 40.3467 11.6481 41.3334 10.9888C42.3201 10.3295 43.0892 9.39246 43.5433 8.2961C43.9974 7.19975 44.1162 5.99335 43.8847 4.82946C43.6532 3.66558 43.0818 2.59648 42.2426 1.75736C41.4035 0.918247 40.3344 0.346802 39.1705 0.115291C38.0067 -0.11622 36.8003 0.00259972 35.7039 0.456726C34.6075 0.910851 33.6705 1.67989 33.0112 2.66658C32.3519 3.65328 32 4.81331 32 6C32.0016 7.59081 32.6342 9.11602 33.7591 10.2409C34.884 11.3658 36.4092 11.9984 38 12ZM38 2C38.7911 2 39.5645 2.2346 40.2223 2.67412C40.8801 3.11365 41.3928 3.73836 41.6955 4.46927C41.9983 5.20017 42.0775 6.00444 41.9231 6.78036C41.7688 7.55629 41.3878 8.26902 40.8284 8.82843C40.269 9.38784 39.5563 9.7688 38.7804 9.92314C38.0044 10.0775 37.2002 9.99827 36.4693 9.69552C35.7384 9.39277 35.1136 8.88008 34.6741 8.22228C34.2346 7.56449 34 6.79113 34 6C34 4.93914 34.4214 3.92172 35.1716 3.17158C35.9217 2.42143 36.9391 2 38 2Z" fill="#A3ADE2"/>
<path d="M38 14C35.6139 14.0026 33.3262 14.9517 31.639 16.639C29.9517 18.3262 29.0026 20.6139 29 23C29 23.2652 29.1054 23.5196 29.2929 23.7071C29.4804 23.8946 29.7348 24 30 24C30.2652 24 30.5196 23.8946 30.7071 23.7071C30.8946 23.5196 31 23.2652 31 23C31 21.1435 31.7375 19.363 33.0503 18.0503C34.363 16.7375 36.1435 16 38 16C39.8565 16 41.637 16.7375 42.9497 18.0503C44.2625 19.363 45 21.1435 45 23C45 23.2652 45.1054 23.5196 45.2929 23.7071C45.4804 23.8946 45.7348 24 46 24C46.2652 24 46.5196 23.8946 46.7071 23.7071C46.8946 23.5196 47 23.2652 47 23C46.9974 20.6139 46.0483 18.3262 44.361 16.639C42.6738 14.9517 40.3861 14.0026 38 14Z" fill="#A3ADE2"/>
</g>
<path d="M14.5708 39.6H16.2148L19.1188 45.3L21.9988 39.6H23.6428V48H22.3348L22.3228 41.58L19.5628 47.124H18.6628L15.8788 41.58V48H14.5708V39.6ZM25.772 41.628H27.14V48H25.772V41.628ZM26.456 39C26.688 39 26.88 39.076 27.032 39.228C27.184 39.38 27.26 39.572 27.26 39.804C27.26 40.028 27.184 40.22 27.032 40.38C26.88 40.532 26.688 40.608 26.456 40.608C26.232 40.608 26.04 40.532 25.88 40.38C25.728 40.22 25.652 40.028 25.652 39.804C25.652 39.572 25.728 39.38 25.88 39.228C26.04 39.076 26.232 39 26.456 39ZM36.0885 41.58C36.6965 41.58 37.2285 41.716 37.6845 41.988C38.1405 42.26 38.4965 42.64 38.7525 43.128C39.0085 43.616 39.1365 44.184 39.1365 44.832C39.1365 45.464 39.0085 46.024 38.7525 46.512C38.5045 46.992 38.1525 47.368 37.6965 47.64C37.2485 47.912 36.7205 48.048 36.1125 48.048C35.5285 48.048 35.0285 47.92 34.6125 47.664C34.2045 47.408 33.8925 47.04 33.6765 46.56C33.4605 46.072 33.3525 45.496 33.3525 44.832C33.3525 44.144 33.4605 43.56 33.6765 43.08C33.8925 42.592 34.2045 42.22 34.6125 41.964C35.0285 41.708 35.5205 41.58 36.0885 41.58ZM35.8005 42.672C35.4245 42.672 35.0885 42.764 34.7925 42.948C34.4965 43.132 34.2645 43.384 34.0965 43.704C33.9365 44.016 33.8565 44.38 33.8565 44.796C33.8565 45.212 33.9365 45.584 34.0965 45.912C34.2645 46.232 34.4965 46.484 34.7925 46.668C35.0885 46.844 35.4245 46.932 35.8005 46.932C36.1845 46.932 36.5205 46.84 36.8085 46.656C37.1045 46.472 37.3325 46.22 37.4925 45.9C37.6605 45.58 37.7445 45.212 37.7445 44.796C37.7445 44.388 37.6605 44.024 37.4925 43.704C37.3325 43.384 37.1045 43.132 36.8085 42.948C36.5205 42.764 36.1845 42.672 35.8005 42.672ZM32.4765 41.628H33.8565V50.328H32.4765V41.628ZM44.9887 44.352C44.9727 43.992 44.8887 43.688 44.7367 43.44C44.5927 43.184 44.3887 42.988 44.1247 42.852C43.8607 42.708 43.5567 42.636 43.2127 42.636C42.8287 42.636 42.4927 42.724 42.2047 42.9C41.9247 43.076 41.7047 43.324 41.5447 43.644C41.3847 43.956 41.3047 44.324 41.3047 44.748C41.3047 45.204 41.3887 45.6 41.5567 45.936C41.7327 46.272 41.9727 46.532 42.2767 46.716C42.5887 46.9 42.9447 46.992 43.3447 46.992C44.0567 46.992 44.6567 46.74 45.1447 46.236L45.8767 46.968C45.5647 47.312 45.1847 47.58 44.7367 47.772C44.2887 47.956 43.7887 48.048 43.2367 48.048C42.5807 48.048 42.0087 47.912 41.5207 47.64C41.0327 47.368 40.6527 46.992 40.3807 46.512C40.1087 46.024 39.9727 45.46 39.9727 44.82C39.9727 44.18 40.1087 43.62 40.3807 43.14C40.6527 42.652 41.0327 42.272 41.5207 42C42.0087 41.728 42.5687 41.588 43.2007 41.58C43.9527 41.58 44.5567 41.736 45.0127 42.048C45.4687 42.352 45.7927 42.784 45.9847 43.344C46.1767 43.904 46.2447 44.568 46.1887 45.336H41.0887V44.352H44.9887ZM51.2154 42.828C50.7594 42.804 50.3634 42.884 50.0274 43.068C49.6994 43.244 49.4434 43.492 49.2594 43.812C49.0834 44.132 48.9954 44.5 48.9954 44.916L48.6114 44.868C48.6114 44.156 48.7154 43.556 48.9234 43.068C49.1314 42.58 49.4314 42.212 49.8234 41.964C50.2154 41.708 50.6794 41.58 51.2154 41.58V42.828ZM47.6274 41.628H49.0074V48H47.6274V41.628ZM52.6141 41.232C52.6141 40.728 52.7181 40.316 52.9261 39.996C53.1421 39.668 53.4181 39.428 53.7541 39.276C54.0901 39.116 54.4421 39.036 54.8101 39.036C55.0021 39.036 55.1941 39.064 55.3861 39.12C55.5861 39.168 55.7701 39.236 55.9381 39.324L55.6501 40.38C55.5381 40.332 55.4101 40.288 55.2661 40.248C55.1301 40.2 54.9901 40.176 54.8461 40.176C54.6941 40.176 54.5501 40.208 54.4141 40.272C54.2861 40.328 54.1821 40.424 54.1021 40.56C54.0221 40.688 53.9821 40.856 53.9821 41.064V48H52.6141V41.232ZM51.7741 41.856H55.6501V42.84H51.7741V41.856ZM56.6101 41.628H57.9781V48H56.6101V41.628ZM57.2941 39C57.5261 39 57.7181 39.076 57.8701 39.228C58.0221 39.38 58.0981 39.572 58.0981 39.804C58.0981 40.028 58.0221 40.22 57.8701 40.38C57.7181 40.532 57.5261 40.608 57.2941 40.608C57.0701 40.608 56.8781 40.532 56.7181 40.38C56.5661 40.22 56.4901 40.028 56.4901 39.804C56.4901 39.572 56.5661 39.38 56.7181 39.228C56.8781 39.076 57.0701 39 57.2941 39ZM60.0741 39.096H61.4541V48H60.0741V39.096Z" fill="#A3ADE2"/>
<defs>
<clipPath id="clip0_1051_3096">
<rect width="24" height="24" fill="white" transform="translate(26)"/>
</clipPath>
</defs>
</svg>
