<svg width="18" height="18" viewBox="0 0 18 18" fill="none" xmlns="http://www.w3.org/2000/svg">
<path d="M18 6C18 5.93025 17.9902 5.8605 17.9715 5.79375L17.0925 2.7195C16.635 1.11825 15.1515 0 13.4865 0H4.51275C2.84775 0 1.365 1.11825 0.90675 2.7195L0.02925 5.79375C0.0105 5.8605 0 5.93025 0 6C0 6.759 0.2835 7.45275 0.75 7.98225V15C0.75 16.6545 2.0955 18 3.75 18H8.25C9.9045 18 11.25 16.6545 11.25 15V8.59725C11.532 8.43375 11.7855 8.22525 12 7.98225C12.5498 8.60625 13.3545 9 14.25 9H15C15.2587 9 15.51 8.967 15.75 8.90475V17.25C15.75 17.664 16.0853 18 16.5 18C16.9147 18 17.25 17.664 17.25 17.25V7.98225C17.7165 7.4535 18 6.759 18 6ZM8.25 16.5H3.75C2.92275 16.5 2.25 15.8273 2.25 15V13.5H9.75V15C9.75 15.8273 9.07725 16.5 8.25 16.5ZM9.75 12H2.25V8.90475C2.49 8.967 2.74125 9 3 9H3.75C4.6455 9 5.4495 8.6055 6 7.98225C6.5505 8.60625 7.3545 9 8.25 9H9.75V12ZM14.25 7.5C13.4227 7.5 12.75 6.82725 12.75 6C12.75 5.586 12.4148 5.25 12 5.25C11.5852 5.25 11.25 5.586 11.25 6C11.25 6.82725 10.5773 7.5 9.75 7.5H8.25C7.42275 7.5 6.75 6.82725 6.75 6C6.75 5.586 6.414 5.25 6 5.25C5.586 5.25 5.25 5.586 5.25 6C5.25 6.82725 4.57725 7.5 3.75 7.5H3C2.6325 7.5 2.295 7.3665 2.034 7.14675C2.01225 7.125 1.98975 7.10475 1.96575 7.08525C1.70025 6.8325 1.527 6.48375 1.503 6.09525L2.349 3.132C2.6235 2.17125 3.513 1.5 4.51275 1.5H5.25V3C5.25 3.414 5.586 3.75 6 3.75C6.414 3.75 6.75 3.414 6.75 3V1.5H11.25V3C11.25 3.414 11.5852 3.75 12 3.75C12.4148 3.75 12.75 3.414 12.75 3V1.5H13.4865C14.4855 1.5 15.3758 2.17125 15.6503 3.132L16.497 6.09525C16.4482 6.87825 15.795 7.50075 15 7.50075H14.25V7.5Z" fill="#000D54"/>
</svg>
