<svg width="237" height="237" viewBox="0 0 237 237" fill="none" xmlns="http://www.w3.org/2000/svg">
<path d="M222.188 66.6562C222.188 38.0728 198.931 14.8125 170.344 14.8125C149.423 14.8125 131.401 27.2943 123.216 45.1793L106.751 37.6967C104.805 36.8143 102.57 36.8143 100.624 37.6967L19.1557 74.7279C16.5086 75.9285 14.8125 78.5612 14.8125 81.4688V177.75C14.8125 180.658 16.5086 183.29 19.1557 184.491L100.624 221.522C101.597 221.963 102.642 222.188 103.688 222.188C104.733 222.188 105.778 221.963 106.751 221.522L188.219 184.491C190.866 183.29 192.562 180.658 192.562 177.75V113.426C210.047 105.083 222.188 87.2825 222.188 66.6562ZM103.688 52.5742L119.046 59.5506C118.724 61.88 118.5 64.2396 118.5 66.6562C118.5 78.7054 122.668 89.78 129.59 98.5934L103.688 110.363L40.116 81.4688L103.688 52.5742ZM29.625 92.9682L96.2812 123.267V203.279L29.625 172.984V92.9682ZM177.75 172.984L111.094 203.279V123.267L141.27 109.552C149.567 115.195 159.575 118.5 170.344 118.5C172.865 118.5 175.324 118.258 177.75 117.908V172.984ZM170.344 103.688C149.926 103.688 133.312 87.0741 133.312 66.6562C133.312 46.2384 149.926 29.625 170.344 29.625C190.762 29.625 207.375 46.2384 207.375 66.6562C207.375 87.0741 190.762 103.688 170.344 103.688Z" fill="#000D54"/>
<path d="M192.562 59.25H177.75V44.4375C177.75 40.3438 174.434 37.0312 170.344 37.0312C166.254 37.0312 162.938 40.3438 162.938 44.4375V59.25H148.125C144.035 59.25 140.719 62.5626 140.719 66.6562C140.719 70.7499 144.035 74.0625 148.125 74.0625H162.938V88.875C162.938 92.9687 166.254 96.2812 170.344 96.2812C174.434 96.2812 177.75 92.9687 177.75 88.875V74.0625H192.562C196.653 74.0625 199.969 70.7499 199.969 66.6562C199.969 62.5626 196.653 59.25 192.562 59.25Z" fill="#000D54"/>
</svg>
