<svg width="76" height="51" viewBox="0 0 76 51" fill="none" xmlns="http://www.w3.org/2000/svg">
<g clip-path="url(#clip0_1051_3106)">
<path d="M33.5 13C32.61 13 31.74 12.7361 30.9999 12.2416C30.2599 11.7472 29.6831 11.0443 29.3425 10.2221C29.0019 9.39981 28.9128 8.49501 29.0865 7.6221C29.2601 6.74918 29.6887 5.94736 30.318 5.31802C30.9474 4.68869 31.7492 4.2601 32.6221 4.08647C33.495 3.91284 34.3998 4.00195 35.2221 4.34254C36.0443 4.68314 36.7471 5.25991 37.2416 5.99994C37.7361 6.73996 38 7.60999 38 8.5C37.9987 9.69307 37.5241 10.8369 36.6805 11.6805C35.8369 12.5241 34.6931 12.9987 33.5 13ZM33.5 6C33.0055 6 32.5222 6.14663 32.1111 6.42133C31.7 6.69603 31.3795 7.08648 31.1903 7.54329C31.0011 8.00011 30.9516 8.50278 31.048 8.98773C31.1445 9.47268 31.3826 9.91814 31.7322 10.2678C32.0819 10.6174 32.5273 10.8555 33.0123 10.952C33.4972 11.0484 33.9999 10.9989 34.4567 10.8097C34.9135 10.6205 35.304 10.3001 35.5787 9.88893C35.8534 9.47781 36 8.99446 36 8.5C36 7.83696 35.7366 7.20108 35.2678 6.73224C34.7989 6.26339 34.163 6 33.5 6ZM41 23V22.5C41 20.5109 40.2098 18.6032 38.8033 17.1967C37.3968 15.7902 35.4891 15 33.5 15C31.5109 15 29.6032 15.7902 28.1967 17.1967C26.7902 18.6032 26 20.5109 26 22.5V23C26 23.2652 26.1054 23.5196 26.2929 23.7071C26.4804 23.8946 26.7348 24 27 24C27.2652 24 27.5196 23.8946 27.7071 23.7071C27.8946 23.5196 28 23.2652 28 23V22.5C28 21.0413 28.5795 19.6424 29.6109 18.6109C30.6424 17.5795 32.0413 17 33.5 17C34.9587 17 36.3576 17.5795 37.3891 18.6109C38.4205 19.6424 39 21.0413 39 22.5V23C39 23.2652 39.1054 23.5196 39.2929 23.7071C39.4804 23.8946 39.7348 24 40 24C40.2652 24 40.5196 23.8946 40.7071 23.7071C40.8946 23.5196 41 23.2652 41 23ZM50 18C50 16.6487 49.6088 15.3263 48.8737 14.1924C48.1386 13.0585 47.091 12.1616 45.8574 11.61C44.6238 11.0584 43.2569 10.8756 41.9218 11.0837C40.5866 11.2919 39.3402 11.8821 38.333 12.783C38.2338 12.8702 38.1528 12.9762 38.0948 13.0949C38.0367 13.2135 38.0028 13.3425 37.9949 13.4744C37.987 13.6063 38.0053 13.7384 38.0487 13.8631C38.0922 13.9879 38.1599 14.1028 38.2481 14.2012C38.3362 14.2996 38.4429 14.3796 38.5621 14.4366C38.6813 14.4935 38.8106 14.5262 38.9426 14.5329C39.0745 14.5396 39.2064 14.5201 39.3308 14.4754C39.4551 14.4308 39.5694 14.362 39.667 14.273C40.3865 13.6296 41.2767 13.2082 42.2304 13.0597C43.1841 12.9111 44.1604 13.0417 45.0414 13.4358C45.9225 13.8299 46.6706 14.4705 47.1956 15.2804C47.7206 16.0903 48 17.0348 48 18C48 18.2652 48.1054 18.5196 48.2929 18.7071C48.4804 18.8946 48.7348 19 49 19C49.2652 19 49.5196 18.8946 49.7071 18.7071C49.8946 18.5196 50 18.2652 50 18ZM43.5 9C42.61 9 41.74 8.73608 40.9999 8.24162C40.2599 7.74715 39.6831 7.04435 39.3425 6.22208C39.0019 5.39981 38.9128 4.49501 39.0865 3.6221C39.2601 2.74918 39.6887 1.94736 40.318 1.31802C40.9474 0.688685 41.7492 0.260102 42.6221 0.0864683C43.495 -0.0871652 44.3998 0.00194979 45.2221 0.342544C46.0443 0.683139 46.7471 1.25991 47.2416 1.99994C47.7361 2.73996 48 3.60999 48 4.5C47.9987 5.69307 47.5241 6.83689 46.6805 7.68052C45.8369 8.52415 44.6931 8.99868 43.5 9ZM43.5 2C43.0055 2 42.5222 2.14662 42.1111 2.42133C41.7 2.69603 41.3795 3.08648 41.1903 3.54329C41.0011 4.00011 40.9516 4.50278 41.048 4.98773C41.1445 5.47268 41.3826 5.91814 41.7322 6.26777C42.0819 6.6174 42.5273 6.8555 43.0123 6.95197C43.4972 7.04843 43.9999 6.99892 44.4567 6.8097C44.9135 6.62048 45.304 6.30005 45.5787 5.88893C45.8534 5.47781 46 4.99446 46 4.5C46 3.83696 45.7366 3.20108 45.2678 2.73224C44.7989 2.26339 44.163 2 43.5 2Z" fill="#A3ADE2"/>
</g>
<path d="M5.78403 39.6C6.84003 39.6 7.65603 39.852 8.23203 40.356C8.81603 40.852 9.10803 41.552 9.10803 42.456C9.10803 43.4 8.81603 44.136 8.23203 44.664C7.65603 45.184 6.84003 45.444 5.78403 45.444H3.22803L3.85203 44.82V48H2.43603V39.6H5.78403ZM5.72403 44.232C6.37203 44.232 6.87203 44.092 7.22403 43.812C7.57603 43.524 7.75203 43.084 7.75203 42.492C7.75203 41.924 7.57603 41.504 7.22403 41.232C6.87203 40.952 6.37203 40.812 5.72403 40.812H3.22803L3.85203 40.188V44.856L3.22803 44.232H5.72403ZM14.0143 42.828C13.5583 42.804 13.1623 42.884 12.8263 43.068C12.4983 43.244 12.2423 43.492 12.0583 43.812C11.8823 44.132 11.7943 44.5 11.7943 44.916L11.4103 44.868C11.4103 44.156 11.5143 43.556 11.7223 43.068C11.9303 42.58 12.2303 42.212 12.6223 41.964C13.0143 41.708 13.4783 41.58 14.0143 41.58V42.828ZM10.4263 41.628H11.8063V48H10.4263V41.628ZM17.8849 41.58C18.5409 41.58 19.1169 41.716 19.6129 41.988C20.1169 42.26 20.5089 42.64 20.7889 43.128C21.0689 43.608 21.2089 44.168 21.2089 44.808C21.2089 45.448 21.0689 46.012 20.7889 46.5C20.5089 46.988 20.1169 47.368 19.6129 47.64C19.1169 47.912 18.5409 48.048 17.8849 48.048C17.2289 48.048 16.6489 47.912 16.1449 47.64C15.6409 47.368 15.2489 46.988 14.9689 46.5C14.6889 46.012 14.5489 45.448 14.5489 44.808C14.5489 44.168 14.6889 43.608 14.9689 43.128C15.2489 42.64 15.6409 42.26 16.1449 41.988C16.6489 41.716 17.2289 41.58 17.8849 41.58ZM17.8849 42.696C17.5009 42.696 17.1609 42.788 16.8649 42.972C16.5689 43.148 16.3369 43.396 16.1689 43.716C16.0089 44.036 15.9289 44.404 15.9289 44.82C15.9289 45.244 16.0089 45.616 16.1689 45.936C16.3369 46.256 16.5689 46.508 16.8649 46.692C17.1609 46.868 17.5009 46.956 17.8849 46.956C18.2689 46.956 18.6049 46.868 18.8929 46.692C19.1889 46.508 19.4169 46.256 19.5769 45.936C19.7449 45.616 19.8289 45.244 19.8289 44.82C19.8289 44.404 19.7449 44.036 19.5769 43.716C19.4169 43.396 19.1889 43.148 18.8929 42.972C18.6049 42.788 18.2689 42.696 17.8849 42.696ZM21.4065 41.628H22.8465L24.6225 46.728L26.3745 41.628H27.7545L25.3065 48H23.8785L21.4065 41.628ZM32.9008 44.352C32.8848 43.992 32.8008 43.688 32.6488 43.44C32.5048 43.184 32.3008 42.988 32.0368 42.852C31.7728 42.708 31.4688 42.636 31.1248 42.636C30.7408 42.636 30.4048 42.724 30.1168 42.9C29.8368 43.076 29.6168 43.324 29.4568 43.644C29.2968 43.956 29.2168 44.324 29.2168 44.748C29.2168 45.204 29.3008 45.6 29.4688 45.936C29.6448 46.272 29.8848 46.532 30.1888 46.716C30.5008 46.9 30.8568 46.992 31.2568 46.992C31.9688 46.992 32.5688 46.74 33.0568 46.236L33.7888 46.968C33.4768 47.312 33.0968 47.58 32.6488 47.772C32.2008 47.956 31.7008 48.048 31.1488 48.048C30.4928 48.048 29.9208 47.912 29.4328 47.64C28.9448 47.368 28.5648 46.992 28.2928 46.512C28.0208 46.024 27.8848 45.46 27.8848 44.82C27.8848 44.18 28.0208 43.62 28.2928 43.14C28.5648 42.652 28.9448 42.272 29.4328 42C29.9208 41.728 30.4808 41.588 31.1128 41.58C31.8648 41.58 32.4688 41.736 32.9248 42.048C33.3808 42.352 33.7048 42.784 33.8968 43.344C34.0888 43.904 34.1568 44.568 34.1008 45.336H29.0008V44.352H32.9008ZM39.9555 44.352C39.9395 43.992 39.8555 43.688 39.7035 43.44C39.5595 43.184 39.3555 42.988 39.0915 42.852C38.8275 42.708 38.5235 42.636 38.1795 42.636C37.7955 42.636 37.4595 42.724 37.1715 42.9C36.8915 43.076 36.6715 43.324 36.5115 43.644C36.3515 43.956 36.2715 44.324 36.2715 44.748C36.2715 45.204 36.3555 45.6 36.5235 45.936C36.6995 46.272 36.9395 46.532 37.2435 46.716C37.5555 46.9 37.9115 46.992 38.3115 46.992C39.0235 46.992 39.6235 46.74 40.1115 46.236L40.8435 46.968C40.5315 47.312 40.1515 47.58 39.7035 47.772C39.2555 47.956 38.7555 48.048 38.2035 48.048C37.5475 48.048 36.9755 47.912 36.4875 47.64C35.9995 47.368 35.6195 46.992 35.3475 46.512C35.0755 46.024 34.9395 45.46 34.9395 44.82C34.9395 44.18 35.0755 43.62 35.3475 43.14C35.6195 42.652 35.9995 42.272 36.4875 42C36.9755 41.728 37.5355 41.588 38.1675 41.58C38.9195 41.58 39.5235 41.736 39.9795 42.048C40.4355 42.352 40.7595 42.784 40.9515 43.344C41.1435 43.904 41.2115 44.568 41.1555 45.336H36.0555V44.352H39.9555ZM45.0302 41.568C45.6222 41.568 46.1222 41.7 46.5302 41.964C46.9462 42.22 47.2622 42.592 47.4782 43.08C47.7022 43.56 47.8102 44.136 47.8022 44.808C47.8102 45.48 47.7062 46.06 47.4902 46.548C47.2742 47.036 46.9582 47.412 46.5422 47.676C46.1342 47.932 45.6382 48.06 45.0542 48.06C44.4462 48.06 43.9102 47.924 43.4462 47.652C42.9902 47.372 42.6342 46.988 42.3782 46.5C42.1222 46.004 41.9942 45.436 41.9942 44.796C41.9942 44.156 42.1222 43.596 42.3782 43.116C42.6342 42.628 42.9902 42.248 43.4462 41.976C43.9022 41.704 44.4302 41.568 45.0302 41.568ZM45.3422 42.684C44.9582 42.684 44.6182 42.776 44.3222 42.96C44.0262 43.144 43.7942 43.4 43.6262 43.728C43.4662 44.048 43.3822 44.416 43.3742 44.832C43.3822 45.248 43.4662 45.616 43.6262 45.936C43.7942 46.256 44.0262 46.508 44.3222 46.692C44.6182 46.876 44.9582 46.968 45.3422 46.968C45.7262 46.968 46.0662 46.876 46.3622 46.692C46.6582 46.508 46.8862 46.256 47.0462 45.936C47.2142 45.616 47.2982 45.248 47.2982 44.832C47.2982 44.408 47.2142 44.036 47.0462 43.716C46.8862 43.396 46.6582 43.144 46.3622 42.96C46.0662 42.776 45.7262 42.684 45.3422 42.684ZM47.2982 39.096H48.6782V48H47.2982V39.096ZM53.5099 41.58C54.1659 41.58 54.7419 41.716 55.2379 41.988C55.7419 42.26 56.1339 42.64 56.4139 43.128C56.6939 43.608 56.8339 44.168 56.8339 44.808C56.8339 45.448 56.6939 46.012 56.4139 46.5C56.1339 46.988 55.7419 47.368 55.2379 47.64C54.7419 47.912 54.1659 48.048 53.5099 48.048C52.8539 48.048 52.2739 47.912 51.7699 47.64C51.2659 47.368 50.8739 46.988 50.5939 46.5C50.3139 46.012 50.1739 45.448 50.1739 44.808C50.1739 44.168 50.3139 43.608 50.5939 43.128C50.8739 42.64 51.2659 42.26 51.7699 41.988C52.2739 41.716 52.8539 41.58 53.5099 41.58ZM53.5099 42.696C53.1259 42.696 52.7859 42.788 52.4899 42.972C52.1939 43.148 51.9619 43.396 51.7939 43.716C51.6339 44.036 51.5539 44.404 51.5539 44.82C51.5539 45.244 51.6339 45.616 51.7939 45.936C51.9619 46.256 52.1939 46.508 52.4899 46.692C52.7859 46.868 53.1259 46.956 53.5099 46.956C53.8939 46.956 54.2299 46.868 54.5179 46.692C54.8139 46.508 55.0419 46.256 55.2019 45.936C55.3699 45.616 55.4539 45.244 55.4539 44.82C55.4539 44.404 55.3699 44.036 55.2019 43.716C55.0419 43.396 54.8139 43.148 54.5179 42.972C54.2299 42.788 53.8939 42.696 53.5099 42.696ZM61.8619 42.828C61.4059 42.804 61.0099 42.884 60.6739 43.068C60.3459 43.244 60.0899 43.492 59.9059 43.812C59.7299 44.132 59.6419 44.5 59.6419 44.916L59.2579 44.868C59.2579 44.156 59.3619 43.556 59.5699 43.068C59.7779 42.58 60.0779 42.212 60.4699 41.964C60.8619 41.708 61.3259 41.58 61.8619 41.58V42.828ZM58.2739 41.628H59.6539V48H58.2739V41.628ZM67.4126 44.352C67.3966 43.992 67.3126 43.688 67.1606 43.44C67.0166 43.184 66.8126 42.988 66.5486 42.852C66.2846 42.708 65.9806 42.636 65.6366 42.636C65.2526 42.636 64.9166 42.724 64.6286 42.9C64.3486 43.076 64.1286 43.324 63.9686 43.644C63.8086 43.956 63.7286 44.324 63.7286 44.748C63.7286 45.204 63.8126 45.6 63.9806 45.936C64.1566 46.272 64.3966 46.532 64.7006 46.716C65.0126 46.9 65.3686 46.992 65.7686 46.992C66.4806 46.992 67.0806 46.74 67.5686 46.236L68.3006 46.968C67.9886 47.312 67.6086 47.58 67.1606 47.772C66.7126 47.956 66.2126 48.048 65.6606 48.048C65.0046 48.048 64.4326 47.912 63.9446 47.64C63.4566 47.368 63.0766 46.992 62.8046 46.512C62.5326 46.024 62.3966 45.46 62.3966 44.82C62.3966 44.18 62.5326 43.62 62.8046 43.14C63.0766 42.652 63.4566 42.272 63.9446 42C64.4326 41.728 64.9926 41.588 65.6246 41.58C66.3766 41.58 66.9806 41.736 67.4366 42.048C67.8926 42.352 68.2166 42.784 68.4086 43.344C68.6006 43.904 68.6686 44.568 68.6126 45.336H63.5126V44.352H67.4126ZM73.6873 43.176C73.4073 43.008 73.0993 42.876 72.7633 42.78C72.4353 42.676 72.1313 42.624 71.8513 42.624C71.5793 42.624 71.3553 42.676 71.1793 42.78C71.0033 42.884 70.9153 43.056 70.9153 43.296C70.9153 43.496 70.9953 43.656 71.1553 43.776C71.3233 43.888 71.5353 43.984 71.7913 44.064C72.0473 44.144 72.3193 44.228 72.6073 44.316C72.8953 44.404 73.1673 44.52 73.4233 44.664C73.6873 44.8 73.8993 44.988 74.0593 45.228C74.2193 45.468 74.2993 45.784 74.2993 46.176C74.2993 46.608 74.1833 46.964 73.9513 47.244C73.7273 47.516 73.4273 47.72 73.0513 47.856C72.6833 47.984 72.2833 48.048 71.8513 48.048C71.3873 48.048 70.9233 47.972 70.4593 47.82C69.9953 47.668 69.6033 47.448 69.2833 47.16L69.7753 46.224C70.0553 46.472 70.3953 46.668 70.7952 46.812C71.1953 46.948 71.5673 47.016 71.9113 47.016C72.1113 47.016 72.2873 46.992 72.4393 46.944C72.5993 46.888 72.7233 46.808 72.8113 46.704C72.9073 46.6 72.9553 46.464 72.9553 46.296C72.9553 46.072 72.8753 45.896 72.7153 45.768C72.5553 45.64 72.3473 45.536 72.0913 45.456C71.8353 45.368 71.5633 45.284 71.2753 45.204C70.9873 45.116 70.7153 45.004 70.4593 44.868C70.2113 44.732 70.0073 44.548 69.8473 44.316C69.6873 44.084 69.6073 43.776 69.6073 43.392C69.6073 42.96 69.7193 42.612 69.9433 42.348C70.1673 42.076 70.4553 41.88 70.8073 41.76C71.1673 41.632 71.5513 41.568 71.9593 41.568C72.3593 41.568 72.7593 41.624 73.1593 41.736C73.5593 41.848 73.9033 42.004 74.1913 42.204L73.6873 43.176Z" fill="#A3ADE2"/>
<defs>
<clipPath id="clip0_1051_3106">
<rect width="24" height="24" fill="white" transform="translate(26)"/>
</clipPath>
</defs>
</svg>
