<svg width="76" height="51" viewBox="0 0 76 51" fill="none" xmlns="http://www.w3.org/2000/svg">
<g clip-path="url(#clip0_1051_3101)">
<path d="M50 14.9995C50 15.6165 49.76 16.1965 49.322 16.6335L47.25 18.7065C47.055 18.9015 46.799 18.9995 46.543 18.9995C46.287 18.9995 46.031 18.9015 45.836 18.7065C45.445 18.3155 45.445 17.6835 45.836 17.2925L47.128 15.9995H41C40.447 15.9995 40 15.5525 40 14.9995C40 14.4465 40.447 13.9995 41 13.9995H47.128L45.836 12.7065C45.445 12.3155 45.445 11.6835 45.836 11.2925C46.227 10.9015 46.859 10.9015 47.25 11.2925L49.323 13.3665C49.76 13.8025 50 14.3825 50 14.9995ZM32.5 10.9995C31.672 10.9995 31 11.6715 31 12.4995C31 13.3275 31.672 13.9995 32.5 13.9995C33.328 13.9995 34 13.3275 34 12.4995C34 11.6715 33.328 10.9995 32.5 10.9995ZM42 18.9995V20.9995C42 22.6535 40.654 23.9995 39 23.9995H29C27.346 23.9995 26 22.6535 26 20.9995V5.62048C26 3.24548 27.69 1.18348 30.019 0.717475L33.216 0.0784753C34.397 -0.157525 35.607 0.144475 36.537 0.907475C36.912 1.21448 37.202 1.59248 37.439 1.99948H38C40.206 1.99948 42 3.79348 42 5.99948V10.9995C42 11.5525 41.553 11.9995 41 11.9995C40.447 11.9995 40 11.5525 40 10.9995V5.99948C40 4.89648 39.103 3.99948 38 3.99948V21.9985H39C39.552 21.9985 40 21.5505 40 20.9985V18.9985C40 18.4455 40.447 17.9985 41 17.9985C41.553 17.9985 42 18.4465 42 18.9995ZM36 4.00048C36 3.39848 35.733 2.83548 35.269 2.45448C34.907 2.15748 34.461 2.00048 34.003 2.00048C33.872 2.00048 33.739 2.01348 33.607 2.03948L30.411 2.67848C29.014 2.95748 28 4.19548 28 5.62048V20.9995C28 21.5515 28.449 21.9995 29 21.9995H36V4.00048Z" fill="#A3ADE2"/>
</g>
<path d="M31.132 41.544C30.828 41.352 30.528 41.2 30.232 41.088C29.936 40.976 29.656 40.896 29.392 40.848C29.128 40.8 28.888 40.776 28.672 40.776C28.256 40.776 27.924 40.856 27.676 41.016C27.428 41.176 27.304 41.408 27.304 41.712C27.304 41.984 27.384 42.208 27.544 42.384C27.712 42.552 27.928 42.692 28.192 42.804C28.464 42.908 28.76 43.008 29.08 43.104C29.408 43.2 29.732 43.308 30.052 43.428C30.372 43.54 30.668 43.688 30.94 43.872C31.212 44.056 31.428 44.292 31.588 44.58C31.748 44.86 31.828 45.216 31.828 45.648C31.828 46.144 31.692 46.576 31.42 46.944C31.148 47.304 30.772 47.584 30.292 47.784C29.82 47.984 29.276 48.084 28.66 48.084C28.22 48.084 27.792 48.028 27.376 47.916C26.96 47.796 26.568 47.636 26.2 47.436C25.84 47.236 25.516 47.004 25.228 46.74L25.84 45.576C26.128 45.84 26.432 46.064 26.752 46.248C27.08 46.432 27.408 46.572 27.736 46.668C28.072 46.764 28.388 46.812 28.684 46.812C29.18 46.812 29.564 46.716 29.836 46.524C30.116 46.332 30.256 46.064 30.256 45.72C30.256 45.44 30.172 45.216 30.004 45.048C29.844 44.872 29.628 44.728 29.356 44.616C29.092 44.504 28.796 44.404 28.468 44.316C28.148 44.228 27.824 44.128 27.496 44.016C27.176 43.896 26.88 43.748 26.608 43.572C26.344 43.396 26.128 43.168 25.96 42.888C25.8 42.608 25.72 42.252 25.72 41.82C25.72 41.348 25.848 40.94 26.104 40.596C26.36 40.244 26.716 39.972 27.172 39.78C27.636 39.588 28.172 39.492 28.78 39.492C29.324 39.492 29.852 39.572 30.364 39.732C30.876 39.892 31.328 40.1 31.72 40.356L31.132 41.544ZM35.4889 45.156C35.0409 45.156 34.7089 45.224 34.4929 45.36C34.2769 45.496 34.1689 45.72 34.1689 46.032C34.1689 46.328 34.2769 46.564 34.4929 46.74C34.7169 46.916 35.0209 47.004 35.4049 47.004C35.7489 47.004 36.0569 46.944 36.3289 46.824C36.6009 46.704 36.8169 46.544 36.9769 46.344C37.1369 46.136 37.2209 45.904 37.2289 45.648L37.4929 46.812C37.2929 47.228 36.9889 47.54 36.5809 47.748C36.1729 47.956 35.6849 48.06 35.1169 48.06C34.6609 48.06 34.2649 47.972 33.9289 47.796C33.5929 47.62 33.3329 47.384 33.1489 47.088C32.9649 46.784 32.8729 46.448 32.8729 46.08C32.8729 45.504 33.0809 45.044 33.4969 44.7C33.9209 44.356 34.5169 44.18 35.2849 44.172H37.3969V45.156H35.4889ZM37.2169 43.956C37.2169 43.54 37.0889 43.216 36.8329 42.984C36.5769 42.752 36.1969 42.636 35.6929 42.636C35.3889 42.636 35.0769 42.692 34.7569 42.804C34.4449 42.916 34.1289 43.08 33.8089 43.296L33.2449 42.408C33.5409 42.224 33.8209 42.072 34.0849 41.952C34.3489 41.832 34.6289 41.74 34.9249 41.676C35.2289 41.612 35.5849 41.58 35.9929 41.58C36.8169 41.58 37.4489 41.78 37.8889 42.18C38.3369 42.572 38.5649 43.116 38.5729 43.812L38.5849 48H37.2289L37.2169 43.956ZM40.4921 39.096H41.8721V48H40.4921V39.096ZM43.9712 41.628H45.3392V48H43.9712V41.628ZM44.6552 39C44.8872 39 45.0792 39.076 45.2312 39.228C45.3832 39.38 45.4592 39.572 45.4592 39.804C45.4592 40.028 45.3832 40.22 45.2312 40.38C45.0792 40.532 44.8872 40.608 44.6552 40.608C44.4312 40.608 44.2392 40.532 44.0792 40.38C43.9272 40.22 43.8512 40.028 43.8512 39.804C43.8512 39.572 43.9272 39.38 44.0792 39.228C44.2392 39.076 44.4312 39 44.6552 39ZM50.9693 42.828C50.5133 42.804 50.1173 42.884 49.7813 43.068C49.4533 43.244 49.1973 43.492 49.0133 43.812C48.8373 44.132 48.7493 44.5 48.7493 44.916L48.3653 44.868C48.3653 44.156 48.4693 43.556 48.6773 43.068C48.8853 42.58 49.1853 42.212 49.5773 41.964C49.9693 41.708 50.4333 41.58 50.9693 41.58V42.828ZM47.3813 41.628H48.7613V48H47.3813V41.628Z" fill="#A3ADE2"/>
<defs>
<clipPath id="clip0_1051_3101">
<rect width="24" height="24" fill="white" transform="translate(26)"/>
</clipPath>
</defs>
</svg>
