<svg width="78" height="78" viewBox="0 0 78 78" fill="none" xmlns="http://www.w3.org/2000/svg">
<path d="M49.7765 28.2221L49.6995 28.1451C47.1488 25.6079 43.778 24.0618 40.191 23.7836C36.604 23.5055 33.0352 24.5135 30.1238 26.6271C27.2123 28.7408 25.1486 31.8219 24.3021 35.3187C23.4556 38.8154 23.8817 42.4993 25.5042 45.7105L26.1713 47.0242L24.9243 53.0692V53.1462L30.9128 51.7247L32.2778 52.4021C35.1188 53.8122 38.3306 54.2954 41.4607 53.7835C44.5908 53.2717 47.4814 51.7906 49.7252 49.5489C52.5424 46.7182 54.1281 42.8897 54.1377 38.8961C54.1474 34.9024 52.58 31.0664 49.7765 28.2221ZM49.171 45.1563C48.4372 46.3109 47.2723 47.7221 45.8201 48.0762C43.2543 48.6971 39.3492 48.0762 34.4588 43.5552L34.3972 43.4988C30.1431 39.527 29.0142 36.2171 29.2656 33.5948C29.4144 32.1067 30.6563 30.7622 31.7031 29.8796C31.8691 29.7382 32.0661 29.6378 32.278 29.5866C32.49 29.5353 32.7111 29.5346 32.9233 29.5846C33.1356 29.6345 33.3332 29.7337 33.5001 29.8741C33.667 30.0145 33.7985 30.1921 33.884 30.3927L35.4594 33.9848C35.5623 34.2141 35.6008 34.467 35.571 34.7165C35.5412 34.966 35.4441 35.2026 35.2901 35.4012L34.4895 36.4275C34.3232 36.6405 34.224 36.8983 34.2048 37.168C34.1857 37.4376 34.2473 37.7068 34.3818 37.9413C35.1426 39.0602 36.0524 40.0702 37.0861 40.9433C38.196 42.0173 39.4583 42.9216 40.8322 43.6271C41.0824 43.7287 41.3573 43.7532 41.6216 43.6974C41.8858 43.6416 42.1274 43.5081 42.3152 43.3141L43.2338 42.3852C43.4052 42.1887 43.6283 42.0442 43.8777 41.968C44.1272 41.8918 44.3929 41.887 44.6449 41.9542L48.391 43.0318C48.5992 43.0928 48.7905 43.2013 48.9496 43.3487C49.1088 43.4962 49.2315 43.6786 49.3081 43.8816C49.3848 44.0846 49.4132 44.3026 49.3912 44.5185C49.3692 44.7344 49.2973 44.9422 49.1813 45.1255L49.171 45.1563Z" fill="#A3ADE2"/>
<path d="M39 0C31.2865 0 23.7463 2.28731 17.3328 6.57269C10.9193 10.8581 5.92053 16.949 2.96872 24.0753C0.016898 31.2017 -0.755432 39.0433 0.749392 46.6085C2.25422 54.1738 5.9686 61.1229 11.4229 66.5772C16.8771 72.0314 23.8262 75.7458 31.3915 77.2506C38.9568 78.7555 46.7984 77.9831 53.9247 75.0313C61.051 72.0795 67.142 67.0808 71.4273 60.6672C75.7127 54.2537 78 46.7135 78 39C78 28.6566 73.8911 18.7368 66.5772 11.4228C59.2633 4.10892 49.3435 0 39 0ZM58.3307 39.4567C58.2253 42.6957 57.3082 45.8563 55.6635 48.6486C54.0188 51.4409 51.6992 53.7755 48.9175 55.4381C46.1359 57.1006 42.9812 58.038 39.743 58.1641C36.5047 58.2903 33.2867 57.6012 30.3841 56.16L20.6341 58.4795C20.4867 58.5133 20.3325 58.502 20.1916 58.4471C20.0507 58.3922 19.9295 58.2962 19.8438 58.1716C19.7853 58.0883 19.7446 57.9938 19.7242 57.894C19.7039 57.7942 19.7045 57.6913 19.7258 57.5917L21.7784 47.6262C20.4367 44.9972 19.7143 42.096 19.6666 39.1448C19.6189 36.1936 20.247 33.2706 21.503 30.5995C22.759 27.9285 24.6096 25.5803 26.9129 23.7346C29.2163 21.889 31.9114 20.5948 34.792 19.9513C37.6726 19.3078 40.6623 19.3319 43.5321 20.0218C46.402 20.7117 49.0759 22.0491 51.3492 23.9317C53.6225 25.8142 55.4349 28.192 56.6477 30.883C57.8604 33.5739 58.4414 36.5067 58.3461 39.4567H58.3307Z" fill="#A3ADE2"/>
</svg>
